<?xml version="1.0" encoding="UTF-8"?><!DOCTYPE svg PUBLIC "-//W3C//DTD SVG 1.1//EN" "http://www.w3.org/Graphics/SVG/1.1/DTD/svg11.dtd"><svg xmlns="http://www.w3.org/2000/svg" xmlns:xlink="http://www.w3.org/1999/xlink"><defs/><symbol id="EMOJI-01" viewBox="0 0 48 48"><style/><symbol id="New_Symbol_14" viewBox="-6.5 -6.5 13 13"><path d="M0-6c2.2 0 4.1 1.5 4.7 3.5 0 0 0 0 0 0C6.3-2.5 6.4 0 5 0v1c0 2.8-2.2 5-5 5s-5-2.2-5-5V0c-1.4 0-1.3-2.5.2-2.5 0 0 0 0 0 0C-4.1-4.5-2.2-6 0-6z" fill="#ffd4c3" stroke="#504b46" stroke-linecap="round" stroke-linejoin="round" stroke-miterlimit="10"/><circle cx="-1.6" cy="-.1" r=".1" fill="#ffc258"/><path d="M-1.6.5c-.3 0-.6-.3-.6-.6s.2-.7.6-.7c.3 0 .6.3.6.7s-.3.6-.6.6z" fill="#4f4b45"/><circle cx="1.6" cy="-.1" r=".1" fill="#ffc258"/><path d="M1.6.5C1.3.5 1 .2 1-.1s.3-.6.6-.6.6.3.6.6-.2.6-.6.6z" fill="#4f4b45"/><circle cx="-3" cy="-1.5" r=".5" fill="#fabfa5"/><circle cx="3" cy="-1.5" r=".5" fill="#fabfa5"/><path d="M-1.2-3c.8-.5 1.7-.5 2.5 0" fill="none" stroke="#504b46" stroke-linecap="round" stroke-linejoin="round" stroke-miterlimit="10"/></symbol><g id="Icons"><g id="XMLID_1_"><circle id="XMLID_1324_" cx="24" cy="21" r="20" fill="#ffe500"/><path id="XMLID_1321_" d="M24 1C13 1 4 10 4 21s9 20 20 20 20-9 20-20S35 1 24 1zm0 37C13.9 38 5.8 29.8 5.8 19.8 5.8 9.7 13.9 1.5 24 1.5s18.2 8.2 18.2 18.2C42.3 29.8 34.1 38 24 38z" fill="#ebcb00"/><ellipse id="XMLID_1320_" cx="24" cy="5" rx="6" ry="1.5" fill="#fff48c"/><ellipse id="XMLID_1319_" cx="24" cy="45.5" rx="16" ry="1.5" opacity=".15" fill="#45413c"/><circle id="XMLID_1285_" cx="24" cy="21" r="20" fill="none" stroke="#45413c" stroke-linecap="round" stroke-linejoin="round" stroke-miterlimit="10"/><ellipse id="XMLID_1280_" cx="36" cy="26" rx="2.5" ry="1.5" fill="#ffaa54"/><ellipse id="XMLID_1279_" cx="12" cy="26" rx="2.5" ry="1.5" fill="#ffaa54"/><circle id="XMLID_1278_" cx="13.5" cy="20" r="1" fill="#45413c" stroke="#45413c" stroke-linecap="round" stroke-linejoin="round" stroke-miterlimit="10"/><circle id="XMLID_1277_" cx="34.5" cy="20" r="1" fill="#45413c" stroke="#45413c" stroke-linecap="round" stroke-linejoin="round" stroke-miterlimit="10"/><path id="XMLID_1276_" d="M24 38c5.6 0 10.3-4 11-9.2 0-.3-.1-.6-.3-.8-.2-.2-.6-.3-.9-.3-6.5 1-13 1-19.5 0-.3-.1-.7 0-.9.3-.2.2-.4.5-.3.8C13.7 34 18.4 38 24 38z" fill="#ffb0ca" stroke="#45413c" stroke-linecap="round" stroke-linejoin="round" stroke-miterlimit="10"/><path id="XMLID_1275_" d="M24 33c-3.2 0-6.1.7-8.1 1.7 2 2 4.9 3.3 8.1 3.3s6.1-1.3 8.1-3.3c-2-1-4.9-1.7-8.1-1.7z" fill="#ff87af" stroke="#45413c" stroke-linecap="round" stroke-linejoin="round" stroke-miterlimit="10"/></g></g></symbol><symbol id="EMOJI-02" viewBox="0 0 48 48"><style/><symbol id="New_Symbol_14" viewBox="-6.5 -6.5 13 13"><path d="M0-6c2.2 0 4.1 1.5 4.7 3.5 0 0 0 0 0 0C6.3-2.5 6.4 0 5 0v1c0 2.8-2.2 5-5 5s-5-2.2-5-5V0c-1.4 0-1.3-2.5.2-2.5 0 0 0 0 0 0C-4.1-4.5-2.2-6 0-6z" fill="#ffd4c3" stroke="#504b46" stroke-linecap="round" stroke-linejoin="round" stroke-miterlimit="10"/><circle cx="-1.6" cy="-.1" r=".1" fill="#ffc258"/><path d="M-1.6.5c-.3 0-.6-.3-.6-.6s.2-.7.6-.7c.3 0 .6.3.6.7s-.3.6-.6.6z" fill="#4f4b45"/><circle cx="1.6" cy="-.1" r=".1" fill="#ffc258"/><path d="M1.6.5C1.3.5 1 .2 1-.1s.3-.6.6-.6.6.3.6.6-.2.6-.6.6z" fill="#4f4b45"/><circle cx="-3" cy="-1.5" r=".5" fill="#fabfa5"/><circle cx="3" cy="-1.5" r=".5" fill="#fabfa5"/><path d="M-1.2-3c.8-.5 1.7-.5 2.5 0" fill="none" stroke="#504b46" stroke-linecap="round" stroke-linejoin="round" stroke-miterlimit="10"/></symbol><g id="Icons"><g id="XMLID_2_"><circle id="XMLID_7676_" cx="20.8" cy="21.5" r="20" fill="#ffe500"/><path id="XMLID_7673_" d="M20.8 1.5c-11 0-20 9-20 20s9 20 20 20 20-9 20-20-9-20-20-20zm0 37c-10.1 0-18.2-8.2-18.2-18.2C2.5 10.1 10.7 2 20.8 2S39 10.1 39 20.2s-8.2 18.3-18.2 18.3z" fill="#ebcb00"/><ellipse id="XMLID_7672_" cx="20.8" cy="5.5" rx="6" ry="1.5" fill="#fff48c"/><ellipse id="XMLID_7671_" cx="20.8" cy="45" rx="16" ry="1.5" opacity=".15" fill="#45413c"/><circle id="XMLID_7670_" cx="20.8" cy="21.5" r="20" fill="none" stroke="#45413c" stroke-linecap="round" stroke-linejoin="round" stroke-miterlimit="10"/><ellipse id="XMLID_7669_" cx="32.8" cy="26.5" rx="2.5" ry="1.5" fill="#ffaa54"/><ellipse id="XMLID_7668_" cx="8.7" cy="26.5" rx="2.5" ry="1.5" fill="#ffaa54"/><path id="XMLID_7667_" d="M6.8 22.7c0-1 .8-1.8 1.8-1.8s1.8.8 1.8 1.8" fill="none" stroke="#45413c" stroke-linecap="round" stroke-linejoin="round" stroke-miterlimit="10"/><path id="XMLID_7666_" d="M31.2 22.7c0-1 .8-1.8 1.8-1.8s1.8.8 1.8 1.8" fill="none" stroke="#45413c" stroke-linecap="round" stroke-linejoin="round" stroke-miterlimit="10"/><path id="XMLID_7665_" d="M42.4 30.6l4.5-1.5c.2-.1.3-.2.3-.4s-.1-.3-.3-.4l-3.7-1.2c-.5-.2-.9-.6-1.1-1.1l-1.2-3.7c-.1-.2-.2-.3-.4-.3s-.3.1-.4.3L38.9 26c-.2.5-.6.9-1.1 1.1L34 28.3c-.2.1-.3.2-.3.4s.1.3.3.4l3.7 1.2c.5.2.9.6 1.1 1.1l1.2 3.7c.1.2.2.3.4.3s.3-.1.4-.3l1.6-4.5z" fill="#fff" stroke="#45413c" stroke-linecap="round" stroke-linejoin="round" stroke-miterlimit="10"/><g id="XMLID_7658_" stroke="#45413c" stroke-linecap="round" stroke-linejoin="round" stroke-miterlimit="10"><path id="XMLID_7664_" d="M20.8 36.5c9.2 0 10.4-3.8 9.9-7-.3-1.9-2.5-3.1-4.6-2.4-1.5.5-3.4.8-5.3.8s-3.8-.3-5.3-.8c-2-.7-4.2.5-4.6 2.4-.6 3.2.6 7 9.9 7z" fill="#fff"/><g id="XMLID_7659_" fill="none"><path id="XMLID_7663_" d="M30.7 30.2c-1 .5-2.5 1-4.6 1.4-1.5.2-3.2.4-5.4.4s-3.9-.2-5.4-.4c-2.1-.4-3.6-.9-4.6-1.4"/><path id="XMLID_7662_" d="M16 27.4l-.6 4.2-.7 4.1"/><path id="XMLID_7661_" d="M20.8 36.5V28"/><path id="XMLID_7660_" d="M25.5 27.4l.6 4.2.7 4.1"/></g></g></g></g></symbol><symbol id="EMOJI-09" viewBox="0 0 48 48"><style/><symbol id="New_Symbol_14" viewBox="-6.5 -6.5 13 13"><path d="M0-6c2.2 0 4.1 1.5 4.7 3.5 0 0 0 0 0 0C6.3-2.5 6.4 0 5 0v1c0 2.8-2.2 5-5 5s-5-2.2-5-5V0c-1.4 0-1.3-2.5.2-2.5 0 0 0 0 0 0C-4.1-4.5-2.2-6 0-6z" fill="#ffd4c3" stroke="#504b46" stroke-linecap="round" stroke-linejoin="round" stroke-miterlimit="10"/><circle cx="-1.6" cy="-.1" r=".1" fill="#ffc258"/><path d="M-1.6.5c-.3 0-.6-.3-.6-.6s.2-.7.6-.7c.3 0 .6.3.6.7s-.3.6-.6.6z" fill="#4f4b45"/><circle cx="1.6" cy="-.1" r=".1" fill="#ffc258"/><path d="M1.6.5C1.3.5 1 .2 1-.1s.3-.6.6-.6.6.3.6.6-.2.6-.6.6z" fill="#4f4b45"/><circle cx="-3" cy="-1.5" r=".5" fill="#fabfa5"/><circle cx="3" cy="-1.5" r=".5" fill="#fabfa5"/><path d="M-1.2-3c.8-.5 1.7-.5 2.5 0" fill="none" stroke="#504b46" stroke-linecap="round" stroke-linejoin="round" stroke-miterlimit="10"/></symbol><g id="Icons"><g id="XMLID_410_"><ellipse id="XMLID_419_" cx="24" cy="45.4" rx="12.4" ry="1.7" opacity=".15" fill="#45413c"/><circle id="XMLID_406_" cx="24" cy="17.7" r="16.4" fill="#ffe500"/><path id="XMLID_403_" d="M24 1.3c-9 0-16.4 7.3-16.4 16.4S15 34.1 24 34.1s16.4-7.3 16.4-16.4S33 1.3 24 1.3zm0 30.3c-8.2 0-14.9-6.7-14.9-14.9 0-8.3 6.7-15 14.9-15s14.9 6.7 14.9 14.9c0 8.3-6.7 15-14.9 15z" fill="#ebcb00"/><ellipse id="XMLID_402_" cx="24" cy="4.6" rx="4.9" ry="1.2" fill="#fff48c"/><circle id="XMLID_401_" cx="24" cy="17.7" r="16.4" fill="none" stroke="#45413c" stroke-linecap="round" stroke-linejoin="round" stroke-miterlimit="10"/><ellipse id="XMLID_399_" cx="35" cy="21.8" rx="2" ry="1.2" fill="#ffaa54"/><ellipse id="XMLID_398_" cx="13" cy="21.8" rx="2" ry="1.2" fill="#ffaa54"/><g id="XMLID_396_"><path id="XMLID_397_" d="M17.8 22.6c.4 6.6 4.2 9.3 5.6 10.1.3.2.8.2 1.1 0 1.4-.8 5.2-3.5 5.6-10.1 0-.6-.5-1.2-1.1-1.2H18.9c-.6 0-1.1.6-1.1 1.2z" fill="#ffb0ca" stroke="#45413c" stroke-linecap="round" stroke-linejoin="round" stroke-miterlimit="10"/></g><g id="XMLID_392_"><path id="XMLID_395_" d="M24 27.1c0-1.2 3.7-.9 3.7.4v5.3c0 2-1.6 3.7-3.7 3.7s-3.7-1.6-3.7-3.7v-5.3c0-1.3 3.7-1.6 3.7-.4z" fill="#ff6242"/><path id="XMLID_394_" d="M24 27.1c0-1.2-3.7-.9-3.7.4v1.6c0-1.3 7.4-1.3 7.4 0v-1.6c0-1.3-3.7-1.6-3.7-.4z" fill="#ff866e"/><path id="XMLID_393_" d="M24 27.1c0-1.2 3.7-.9 3.7.4v5.3c0 2-1.6 3.7-3.7 3.7s-3.7-1.6-3.7-3.7v-5.3c0-1.3 3.7-1.6 3.7-.4z" fill="none" stroke="#45413c" stroke-linecap="round" stroke-linejoin="round" stroke-miterlimit="10"/></g><path id="XMLID_391_" d="M28.1 41.2c0 2.5-3.3 2.5-3.3 0 0-1.4 1.6-3.4 1.6-3.4s1.7 1.9 1.7 3.4z" fill="#4aeff7" stroke="#45413c" stroke-linecap="round" stroke-linejoin="round" stroke-miterlimit="10"/><g id="XMLID_380_"><g id="XMLID_384_"><path id="XMLID_390_" d="M30.2 2.6a9.04 9.04 0 00-5.4 8.3c0 5.1 4.1 9.2 9.2 9.2 2.5 0 4.7-1 6.3-2.5 0-6.8-4.1-12.6-10.1-15z" opacity=".15" fill="#45413c"/><g id="XMLID_385_"><circle id="XMLID_389_" cx="33.5" cy="9.4" r="8.5" fill="#fffacf"/><path id="XMLID_388_" d="M33.5 16.3c-4.4 0-8-3.4-8.4-7.7v.8c0 4.7 3.8 8.5 8.5 8.5s8.5-3.8 8.5-8.5v-.8c-.5 4.3-4.2 7.7-8.6 7.7z" fill="#ffe500"/><path id="XMLID_387_" d="M33.5 3.6c4.2 0 7.7 3.1 8.4 7.2.1-.5.1-.9.1-1.4C42 4.7 38.2.9 33.5.9S25 4.7 25 9.4c0 .5 0 .9.1 1.3.7-4 4.2-7.1 8.4-7.1z" fill="#fff"/><circle id="XMLID_386_" cx="33.5" cy="9.4" r="8.5" fill="none" stroke="#45413c" stroke-linejoin="round" stroke-miterlimit="10"/></g></g><g id="XMLID_381_" fill="none" stroke="#45413c" stroke-linecap="round" stroke-linejoin="round" stroke-miterlimit="10"><path id="XMLID_383_" d="M33.5 4.3v10.2"/><path id="XMLID_382_" d="M31.5 11.4c0 1.1.9 2 2 2s2-.9 2-2-.9-2-2-2-2-.9-2-2 .9-2 2-2 2 .9 2 2"/></g></g><g id="XMLID_373_"><path id="XMLID_379_" d="M17.8 2.6C21 4 23.2 7.3 23.2 11c0 5.1-4.1 9.2-9.2 9.2-2.5 0-4.7-1-6.3-2.5 0-6.9 4.1-12.7 10.1-15.1z" opacity=".15" fill="#45413c"/><g id="XMLID_374_"><circle id="XMLID_378_" cx="14.5" cy="9.4" r="8.5" fill="#fffacf"/><path id="XMLID_377_" d="M14.5 16.3c4.4 0 8-3.4 8.4-7.7v.8c0 4.7-3.8 8.5-8.5 8.5-4.6 0-8.4-3.8-8.4-8.5v-.8c.4 4.3 4.1 7.7 8.5 7.7z" fill="#ffe500"/><path id="XMLID_376_" d="M14.5 3.6c-4.2 0-7.7 3.1-8.4 7.2-.1-.5-.1-.9-.1-1.4C6 4.7 9.8.9 14.5.9S23 4.7 23 9.4c0 .5 0 .9-.1 1.3-.7-4-4.2-7.1-8.4-7.1z" fill="#fff"/><circle id="XMLID_375_" cx="14.5" cy="9.4" r="8.5" fill="none" stroke="#45413c" stroke-linejoin="round" stroke-miterlimit="10"/></g></g><g id="XMLID_370_" fill="none" stroke="#45413c" stroke-linecap="round" stroke-linejoin="round" stroke-miterlimit="10"><path id="XMLID_372_" d="M14.6 4.3v10.2"/><path id="XMLID_371_" d="M12.5 11.4c0 1.1.9 2 2 2s2-.9 2-2-.9-2-2-2-2-.9-2-2 .9-2 2-2 2 .9 2 2"/></g></g></g></symbol><symbol id="EMOJI-16" viewBox="0 0 48 48"><style/><symbol id="New_Symbol_14" viewBox="-6.5 -6.5 13 13"><path d="M0-6c2.2 0 4.1 1.5 4.7 3.5 0 0 0 0 0 0C6.3-2.5 6.4 0 5 0v1c0 2.8-2.2 5-5 5s-5-2.2-5-5V0c-1.4 0-1.3-2.5.2-2.5 0 0 0 0 0 0C-4.1-4.5-2.2-6 0-6z" fill="#ffd4c3" stroke="#504b46" stroke-linecap="round" stroke-linejoin="round" stroke-miterlimit="10"/><circle cx="-1.6" cy="-.1" r=".1" fill="#ffc258"/><path d="M-1.6.5c-.3 0-.6-.3-.6-.6s.2-.7.6-.7c.3 0 .6.3.6.7s-.3.6-.6.6z" fill="#4f4b45"/><circle cx="1.6" cy="-.1" r=".1" fill="#ffc258"/><path d="M1.6.5C1.3.5 1 .2 1-.1s.3-.6.6-.6.6.3.6.6-.2.6-.6.6z" fill="#4f4b45"/><circle cx="-3" cy="-1.5" r=".5" fill="#fabfa5"/><circle cx="3" cy="-1.5" r=".5" fill="#fabfa5"/><path d="M-1.2-3c.8-.5 1.7-.5 2.5 0" fill="none" stroke="#504b46" stroke-linecap="round" stroke-linejoin="round" stroke-miterlimit="10"/></symbol><g id="Icons"><g id="XMLID_534_"><path id="XMLID_7128_" d="M44 19c0 11-13.5 22.5-20 22.5S4 30.1 4 19 13 1.5 24 1.5 44 8 44 19z" fill="#00dba8"/><path id="XMLID_7127_" d="M24 38.4c-6.2 0-18.8-10.5-19.9-21-.1.5-.1 1.1-.1 1.6 0 11 13.5 22.5 20 22.5S44 30.1 44 19c0-.6 0-1.1-.1-1.7C42.8 28 30.2 38.4 24 38.4z" fill="#00ad85"/><path id="XMLID_7126_" d="M29.1 30c-1.4 1-3.2 1.5-5 1.5-1.8 0-3.6-.6-5-1.5" fill="none" stroke="#45413c" stroke-linecap="round" stroke-miterlimit="10"/><ellipse id="XMLID_7125_" cx="24.1" cy="45" rx="16" ry="1.5" opacity=".15" fill="#45413c"/><path id="XMLID_7124_" d="M44 19c0 11-13.5 22.5-20 22.5S4 30.1 4 19 13 1.5 24 1.5 44 8 44 19z" fill="none" stroke="#45413c" stroke-linecap="round" stroke-linejoin="round" stroke-miterlimit="10"/><g id="XMLID_7116_"><path id="XMLID_7119_" d="M37.1 12.5c2.4 1.8 2.4 5.7.2 8.7-2.3 3-6.3 3.5-9 3.1-1.6-2.3-1.9-6.6.4-9.6 2.3-3.1 6-4 8.4-2.2z" fill="#bf8df2"/><path id="XMLID_7118_" d="M37.1 15.2c-2.4-1.8-6.1-.9-8.4 2.1-.9 1.1-1.3 2.4-1.5 3.8-.3-2.1.1-4.6 1.5-6.5 2.3-3 6-3.9 8.4-2.1 1.6 1.2 2.1 3.3 1.7 5.4-.3-1.1-.8-2.1-1.7-2.7z" fill="#dabff5"/><path id="XMLID_7117_" d="M37.1 12.5c2.4 1.8 2.4 5.7.2 8.7-2.3 3-6.3 3.5-9 3.1-1.6-2.3-1.9-6.6.4-9.6 2.3-3.1 6-4 8.4-2.2z" fill="none" stroke="#45413c" stroke-linecap="round" stroke-linejoin="round" stroke-miterlimit="10"/></g><g id="XMLID_810_"><path id="XMLID_827_" d="M10.9 12.5c-2.4 1.8-2.4 5.7-.2 8.7 2.3 3 6.3 3.5 9 3.1 1.6-2.3 1.9-6.6-.4-9.6-2.3-3.1-6-4-8.4-2.2z" fill="#bf8df2"/><path id="XMLID_826_" d="M10.9 15.2c2.4-1.8 6.1-.9 8.4 2.1.9 1.1 1.3 2.4 1.5 3.8.3-2.1-.1-4.6-1.5-6.5-2.3-3-6-3.9-8.4-2.1-1.6 1.2-2.1 3.3-1.7 5.4.3-1.1.8-2.1 1.7-2.7z" fill="#dabff5"/><path id="XMLID_811_" d="M10.9 12.5c-2.4 1.8-2.4 5.7-.2 8.7 2.3 3 6.3 3.5 9 3.1 1.6-2.3 1.9-6.6-.4-9.6-2.3-3.1-6-4-8.4-2.2z" fill="none" stroke="#45413c" stroke-linecap="round" stroke-linejoin="round" stroke-miterlimit="10"/></g><path id="XMLID_7115_" fill="none" stroke="#45413c" stroke-linecap="round" stroke-linejoin="round" stroke-miterlimit="10" d="M25.6 26v1.5"/><path id="XMLID_7114_" fill="none" stroke="#45413c" stroke-linecap="round" stroke-linejoin="round" stroke-miterlimit="10" d="M22.6 26v1.5"/><ellipse id="XMLID_7112_" cx="34.9" cy="28.2" rx="2.5" ry="1.5" fill="#00ad85"/><ellipse id="XMLID_828_" cx="13.3" cy="28.2" rx="2.5" ry="1.5" fill="#00ad85"/><ellipse id="XMLID_7111_" cx="24" cy="5.4" rx="6" ry="1.5" fill="#00f5bc"/></g></g></symbol><symbol id="EMOJI-80" viewBox="0 0 48 48"><style/><symbol id="New_Symbol_14" viewBox="-6.5 -6.5 13 13"><path d="M0-6c2.2 0 4.1 1.5 4.7 3.5 0 0 0 0 0 0C6.3-2.5 6.4 0 5 0v1c0 2.8-2.2 5-5 5s-5-2.2-5-5V0c-1.4 0-1.3-2.5.2-2.5 0 0 0 0 0 0C-4.1-4.5-2.2-6 0-6z" fill="#ffd4c3" stroke="#504b46" stroke-linecap="round" stroke-linejoin="round" stroke-miterlimit="10"/><circle cx="-1.6" cy="-.1" r=".1" fill="#ffc258"/><path d="M-1.6.5c-.3 0-.6-.3-.6-.6s.2-.7.6-.7c.3 0 .6.3.6.7s-.3.6-.6.6z" fill="#4f4b45"/><circle cx="1.6" cy="-.1" r=".1" fill="#ffc258"/><path d="M1.6.5C1.3.5 1 .2 1-.1s.3-.6.6-.6.6.3.6.6-.2.6-.6.6z" fill="#4f4b45"/><circle cx="-3" cy="-1.5" r=".5" fill="#fabfa5"/><circle cx="3" cy="-1.5" r=".5" fill="#fabfa5"/><path d="M-1.2-3c.8-.5 1.7-.5 2.5 0" fill="none" stroke="#504b46" stroke-linecap="round" stroke-linejoin="round" stroke-miterlimit="10"/></symbol><g id="Icons"><g id="XMLID_702_"><path id="XMLID_1518_" d="M39.5 19.3c0 3.2.1 6 .4 8.2l1.8-1.9c3.4-3.6 5.5-8.2 5.9-13.2.1-.7-.3-1.5-1-1.8-.5-.3-1.2-.3-1.7 0-.6.3-.9.8-1 1.4-.4 2.7-2 5-4.4 6.2v1.1z" fill="#f0f0f0" stroke="#45413c" stroke-linecap="round" stroke-linejoin="round" stroke-miterlimit="10"/><path id="XMLID_1517_" d="M8.3 27.6c.2-2.3.4-5 .4-8.2 0-.3 0-.7.1-1-2.4-1.3-4-3.6-4.4-6.2-.1-.6-.5-1.1-1-1.4-.6-.3-1.2-.3-1.7 0-.7.4-1 1.1-1 1.8.4 4.9 2.5 9.6 5.9 13.2l1.7 1.8z" fill="#f0f0f0" stroke="#45413c" stroke-linecap="round" stroke-linejoin="round" stroke-miterlimit="10"/><path id="XMLID_1516_" d="M39.5 19.3c0-8.5-6.9-15.4-15.4-15.4S8.6 10.8 8.6 19.3C8.6 37.5 4.3 39 5.9 39c3.8 0 4.6-1.9 6.9-1.9s3.1 1.9 5.8 1.9c2.7 0 3.1-1.9 5.4-1.9s2.7 1.9 5.4 1.9 3.5-1.9 5.8-1.9 3.2 1.9 6.9 1.9c1.7 0-2.6-1.5-2.6-19.7z" fill="#f0f0f0"/><path id="XMLID_1515_" d="M36 34.9c-2.5 0-3.3 1.9-6.2 1.9-2.9 0-3.3-1.9-5.8-1.9s-2.9 1.9-5.8 1.9-3.7-1.9-6.2-1.9c-2.1 0-3.1 1.3-5.7 1.8-.6 2-1.1 2.3-.4 2.3 3.8 0 4.6-1.9 6.9-1.9s3.1 1.9 5.8 1.9c2.7 0 3.1-1.9 5.4-1.9s2.7 1.9 5.4 1.9 3.5-1.9 5.8-1.9 3.2 1.9 6.9 1.9c.7 0 .2-.3-.5-2.4-2.6-.4-3.6-1.7-5.6-1.7z" fill="#e0e0e0"/><ellipse id="XMLID_1514_" cx="24" cy="7" rx="4.6" ry="1.2" fill="#fff"/><ellipse id="XMLID_1513_" cx="24" cy="42.6" rx="17.5" ry="1.5" opacity=".15" fill="#45413c"/><ellipse id="XMLID_1512_" cx="14.8" cy="23.2" rx="1.9" ry="1.2" fill="#ffaa54"/><ellipse id="XMLID_1511_" cx="14.8" cy="23.2" rx="1.9" ry="1.2" fill="#e0e0e0"/><ellipse id="XMLID_1510_" cx="33.3" cy="23.2" rx="1.9" ry="1.2" fill="#e0e0e0"/><circle id="XMLID_1509_" cx="30.6" cy="17.8" r="2.7" fill="#656769"/><path id="XMLID_1508_" d="M30.6 16.6c1.2 0 2.2.8 2.6 1.9.1-.2.1-.5.1-.8 0-1.5-1.2-2.7-2.7-2.7s-2.7 1.2-2.7 2.7c0 .3.1.5.1.8.4-1.1 1.4-1.9 2.6-1.9z" fill="#525252"/><circle id="XMLID_1507_" cx="30.6" cy="17.8" r="2.7" fill="none" stroke="#45413c" stroke-linecap="round" stroke-linejoin="round" stroke-miterlimit="10"/><circle id="XMLID_1506_" cx="17.5" cy="16.6" r="3.9" fill="#656769"/><path id="XMLID_1505_" d="M17.5 14.7c1.8 0 3.3 1.2 3.7 2.9.1-.3.1-.6.1-1 0-2.1-1.7-3.9-3.9-3.9s-3.9 1.7-3.9 3.9c0 .3.1.7.1 1 .6-1.7 2.1-2.9 3.9-2.9z" fill="#525252"/><circle id="XMLID_1504_" cx="17.5" cy="16.6" r="3.9" fill="none" stroke="#45413c" stroke-linecap="round" stroke-linejoin="round" stroke-miterlimit="10"/><path id="XMLID_1503_" d="M39.5 19.3c0-8.5-6.9-15.4-15.4-15.4S8.6 10.8 8.6 19.3C8.6 37.5 4.3 39 5.9 39c3.8 0 4.6-1.9 6.9-1.9s3.1 1.9 5.8 1.9c2.7 0 3.1-1.9 5.4-1.9s2.7 1.9 5.4 1.9 3.5-1.9 5.8-1.9 3.2 1.9 6.9 1.9c1.7 0-2.6-1.5-2.6-19.7z" fill="none" stroke="#45413c" stroke-linecap="round" stroke-linejoin="round" stroke-miterlimit="10"/><g id="XMLID_1501_"><path id="XMLID_1502_" d="M18.3 25.1c.4 6.2 3.9 8.5 5.3 9.2.3.2.7.2 1.1 0 1.4-.8 4.9-3 5.3-9.2 0-.6-.4-1.1-1.1-1.1h-9.5c-.7-.1-1.2.5-1.1 1.1z" fill="#ffb0ca" stroke="#45413c" stroke-linecap="round" stroke-linejoin="round" stroke-miterlimit="10"/></g><g id="XMLID_1497_"><path id="XMLID_1500_" d="M24.1 29c0-1.2 3.5-.8 3.5.4v5c0 1.9-1.6 3.5-3.5 3.5s-3.5-1.6-3.5-3.5v-5c0-1.2 3.5-1.6 3.5-.4z" fill="#ff6242"/><path id="XMLID_1499_" d="M24.1 29c0-1.2-3.5-.8-3.5.4v1.5c0-1.2 6.9-1.2 6.9 0v-1.5c.1-1.2-3.4-1.6-3.4-.4z" fill="#ff866e"/><path id="XMLID_1498_" d="M24.1 29c0-1.2 3.5-.8 3.5.4v5c0 1.9-1.6 3.5-3.5 3.5s-3.5-1.6-3.5-3.5v-5c0-1.2 3.5-1.6 3.5-.4z" fill="none" stroke="#45413c" stroke-linecap="round" stroke-linejoin="round" stroke-miterlimit="10"/></g></g></g></symbol><symbol id="EMOJI-81" viewBox="0 0 48 48"><style/><symbol id="New_Symbol_14" viewBox="-6.5 -6.5 13 13"><path d="M0-6c2.2 0 4.1 1.5 4.7 3.5 0 0 0 0 0 0C6.3-2.5 6.4 0 5 0v1c0 2.8-2.2 5-5 5s-5-2.2-5-5V0c-1.4 0-1.3-2.5.2-2.5 0 0 0 0 0 0C-4.1-4.5-2.2-6 0-6z" fill="#ffd4c3" stroke="#504b46" stroke-linecap="round" stroke-linejoin="round" stroke-miterlimit="10"/><circle cx="-1.6" cy="-.1" r=".1" fill="#ffc258"/><path d="M-1.6.5c-.3 0-.6-.3-.6-.6s.2-.7.6-.7c.3 0 .6.3.6.7s-.3.6-.6.6z" fill="#4f4b45"/><circle cx="1.6" cy="-.1" r=".1" fill="#ffc258"/><path d="M1.6.5C1.3.5 1 .2 1-.1s.3-.6.6-.6.6.3.6.6-.2.6-.6.6z" fill="#4f4b45"/><circle cx="-3" cy="-1.5" r=".5" fill="#fabfa5"/><circle cx="3" cy="-1.5" r=".5" fill="#fabfa5"/><path d="M-1.2-3c.8-.5 1.7-.5 2.5 0" fill="none" stroke="#504b46" stroke-linecap="round" stroke-linejoin="round" stroke-miterlimit="10"/></symbol><g id="Icons"><g id="XMLID_725_"><ellipse id="XMLID_1186_" cx="24" cy="45.5" rx="19.5" ry="1.5" opacity=".15" fill="#45413c"/><path id="XMLID_1191_" d="M42 40.5c0 2.2-1.8 4-4 4H10c-2.2 0-4-1.8-4-4V27c0-9.9 8.1-18 18-18s18 8.1 18 18v13.5z" fill="#daedf7"/><path id="XMLID_1190_" d="M24 9C14.1 9 6 17.1 6 27v5c0-9.9 8.1-18 18-18s18 8.1 18 18v-5c0-9.9-8.1-18-18-18z" fill="#fff"/><path id="XMLID_1189_" d="M42 40.5c0 2.2-1.8 4-4 4H10c-2.2 0-4-1.8-4-4V27c0-9.9 8.1-18 18-18s18 8.1 18 18v13.5z" fill="none" stroke="#45413c" stroke-linecap="round" stroke-linejoin="round" stroke-miterlimit="10"/><path id="XMLID_1188_" d="M30.5 44c0 1.1-.9 2-2 2h-9c-1.1 0-2-.9-2-2v-8c0-1.1.9-2 2-2h9c1.1 0 2 .9 2 2v8z" fill="#c0dceb"/><path id="XMLID_1187_" fill="#adc4d9" d="M17.5 38.5h13v2h-13z"/><path id="XMLID_1185_" fill="#adc4d9" stroke="#45413c" stroke-linecap="round" stroke-linejoin="round" stroke-miterlimit="10" d="M45.5 36.5l-3.5 2V26l3.5 2z"/><path id="XMLID_1184_" fill="#adc4d9" stroke="#45413c" stroke-linecap="round" stroke-linejoin="round" stroke-miterlimit="10" d="M2.5 36.5l3.5 2V26l-3.5 2z"/><path id="XMLID_1183_" d="M24 9c.2-1 2.5-8 10.5-6.7" fill="none" stroke="#45413c" stroke-linecap="round" stroke-linejoin="round" stroke-miterlimit="10"/><circle id="XMLID_1182_" cx="36" cy="3.5" r="2.5" fill="#ff6242" stroke="#45413c" stroke-linecap="round" stroke-linejoin="round" stroke-miterlimit="10"/><path id="XMLID_1181_" d="M30.5 44c0 1.1-.9 2-2 2h-9c-1.1 0-2-.9-2-2v-8c0-1.1.9-2 2-2h9c1.1 0 2 .9 2 2v8z" fill="none" stroke="#45413c" stroke-linecap="round" stroke-linejoin="round" stroke-miterlimit="10"/><path id="XMLID_1180_" d="M30.5 38.5h-13V36c0-1.1.9-2 2-2h9c1.1 0 2 .9 2 2v2.5z" fill="#ff6242" stroke="#45413c" stroke-linecap="round" stroke-linejoin="round" stroke-miterlimit="10"/><path id="XMLID_1179_" d="M33.5 11.8C30.7 10.1 27.5 9 24 9s-6.7 1-9.5 2.7V24h19V11.8z" fill="none" stroke="#45413c" stroke-linecap="round" stroke-linejoin="round" stroke-miterlimit="10"/><circle id="XMLID_1178_" cx="32.5" cy="25" r="5" fill="#00dfeb" stroke="#45413c" stroke-linecap="round" stroke-linejoin="round" stroke-miterlimit="10"/><circle id="XMLID_1177_" cx="32.5" cy="25" r="2" fill="#627b8c" stroke="#45413c" stroke-linecap="round" stroke-linejoin="round" stroke-miterlimit="10"/><circle id="XMLID_1176_" cx="15.5" cy="25" r="5" fill="#00dfeb" stroke="#45413c" stroke-linecap="round" stroke-linejoin="round" stroke-miterlimit="10"/><circle id="XMLID_1175_" cx="15.5" cy="25" r="2" fill="#627b8c" stroke="#45413c" stroke-linecap="round" stroke-linejoin="round" stroke-miterlimit="10"/></g></g></symbol><symbol id="EMOJI-82" viewBox="0 0 48 48"><style/><symbol id="New_Symbol_14" viewBox="-6.5 -6.5 13 13"><path d="M0-6c2.2 0 4.1 1.5 4.7 3.5 0 0 0 0 0 0C6.3-2.5 6.4 0 5 0v1c0 2.8-2.2 5-5 5s-5-2.2-5-5V0c-1.4 0-1.3-2.5.2-2.5 0 0 0 0 0 0C-4.1-4.5-2.2-6 0-6z" fill="#ffd4c3" stroke="#504b46" stroke-linecap="round" stroke-linejoin="round" stroke-miterlimit="10"/><circle cx="-1.6" cy="-.1" r=".1" fill="#ffc258"/><path d="M-1.6.5c-.3 0-.6-.3-.6-.6s.2-.7.6-.7c.3 0 .6.3.6.7s-.3.6-.6.6z" fill="#4f4b45"/><circle cx="1.6" cy="-.1" r=".1" fill="#ffc258"/><path d="M1.6.5C1.3.5 1 .2 1-.1s.3-.6.6-.6.6.3.6.6-.2.6-.6.6z" fill="#4f4b45"/><circle cx="-3" cy="-1.5" r=".5" fill="#fabfa5"/><circle cx="3" cy="-1.5" r=".5" fill="#fabfa5"/><path d="M-1.2-3c.8-.5 1.7-.5 2.5 0" fill="none" stroke="#504b46" stroke-linecap="round" stroke-linejoin="round" stroke-miterlimit="10"/></symbol><g id="Icons"><g id="XMLID_726_"><path id="XMLID_1241_" d="M2.7 38.9C.8 37.7.3 35.2 1.5 33.3L9 38.2c-1.2 1.9-3.7 2.4-5.6 1.2l-.7-.5z" fill="#ff8a14"/><path id="XMLID_1240_" d="M47.2 35.5c0 2.2-1.8 4.1-4.1 4.1v-8.9c2.2 0 4.1 1.8 4.1 4.1v.7z" fill="#ff8a14" stroke="#45413c" stroke-linecap="round" stroke-linejoin="round" stroke-miterlimit="10"/><path id="XMLID_1239_" d="M33 16.8h-8.9l.5-2c.2-.7.8-1.2 1.6-1.2H31c.7 0 1.4.5 1.6 1.2l.4 2z" fill="#adc4d9" stroke="#45413c" stroke-linecap="round" stroke-linejoin="round" stroke-miterlimit="10"/><path id="XMLID_1238_" d="M43.1 41.5c0 1.8-1.5 3.2-3.2 3.2H17.2c-1.8 0-3.2-1.5-3.2-3.2V30.6C14 22.5 20.5 16 28.5 16s14.6 6.5 14.6 14.6v10.9z" fill="#ffe500"/><path id="XMLID_1237_" d="M28.5 16c-8 0-14.5 6.5-14.5 14.6v4.1c0-8.1 6.5-14.6 14.6-14.6s14.6 6.5 14.6 14.6v-4.1C43.1 22.5 36.6 16 28.5 16z" fill="#fff48c"/><path id="XMLID_1236_" d="M43.1 41.5c0 1.8-1.5 3.2-3.2 3.2H17.2c-1.8 0-3.2-1.5-3.2-3.2V30.6C14 22.5 20.5 16 28.5 16s14.6 6.5 14.6 14.6v10.9z" fill="none" stroke="#45413c" stroke-linecap="round" stroke-linejoin="round" stroke-miterlimit="10"/><ellipse id="XMLID_1235_" cx="28.5" cy="45.9" rx="16.5" ry="1.5" opacity=".15" fill="#45413c"/><path id="XMLID_1234_" d="M39.1 44.4c0 .9-.7 1.6-1.6 1.6H19.6c-.9 0-1.6-.7-1.6-1.6v-4.9c0-.9.7-1.6 1.6-1.6h17.8c.9 0 1.6.7 1.6 1.6v4.9z" fill="#c0dceb"/><path id="XMLID_1233_" d="M39.1 39.5c0-.9-.7-1.6-1.6-1.6H19.6c-.9 0-1.6.7-1.6 1.6v2c0-.9.7-1.6 1.6-1.6h17.8c.9 0 1.6.7 1.6 1.6v-2z" fill="#daedf7"/><path id="XMLID_1232_" d="M39.1 44.4c0 .9-.7 1.6-1.6 1.6H19.6c-.9 0-1.6-.7-1.6-1.6v-4.9c0-.9.7-1.6 1.6-1.6h17.8c.9 0 1.6.7 1.6 1.6v4.9z" fill="none" stroke="#45413c" stroke-linecap="round" stroke-linejoin="round" stroke-miterlimit="10"/><circle id="XMLID_1231_" cx="35.4" cy="29" r="4.5" fill="#fff" stroke="#45413c" stroke-linecap="round" stroke-linejoin="round" stroke-miterlimit="10"/><circle id="XMLID_1230_" cx="35.4" cy="29" r="1.6" fill="#ff6242" stroke="#45413c" stroke-linecap="round" stroke-linejoin="round" stroke-miterlimit="10"/><circle id="XMLID_1229_" cx="21.7" cy="29" r="4.1" fill="#fff" stroke="#45413c" stroke-linecap="round" stroke-linejoin="round" stroke-miterlimit="10"/><circle id="XMLID_1228_" cx="21.7" cy="29" r="1.6" fill="#6dd627" stroke="#45413c" stroke-linecap="round" stroke-linejoin="round" stroke-miterlimit="10"/><path id="XMLID_1227_" fill="none" stroke="#45413c" stroke-linecap="round" stroke-linejoin="round" stroke-miterlimit="10" d="M28.5 16v21.9"/><path id="XMLID_1226_" fill="none" stroke="#45413c" stroke-linecap="round" stroke-linejoin="round" stroke-miterlimit="10" d="M35.4 26.1v-1.6"/><path id="XMLID_1225_" fill="none" stroke="#45413c" stroke-linecap="round" stroke-linejoin="round" stroke-miterlimit="10" d="M37.4 27l1.2-1.2"/><path id="XMLID_1224_" fill="none" stroke="#45413c" stroke-linecap="round" stroke-linejoin="round" stroke-miterlimit="10" d="M38.3 29h1.6"/><path id="XMLID_1223_" fill="none" stroke="#45413c" stroke-linecap="round" stroke-linejoin="round" stroke-miterlimit="10" d="M37.4 31l1.2 1.1"/><path id="XMLID_1222_" fill="none" stroke="#45413c" stroke-linecap="round" stroke-linejoin="round" stroke-miterlimit="10" d="M35.4 31.8v1.6"/><path id="XMLID_1221_" fill="none" stroke="#45413c" stroke-linecap="round" stroke-linejoin="round" stroke-miterlimit="10" d="M33.4 31l-1.1 1.1"/><path id="XMLID_1220_" fill="none" stroke="#45413c" stroke-linecap="round" stroke-linejoin="round" stroke-miterlimit="10" d="M32.6 29H31"/><path id="XMLID_1219_" fill="none" stroke="#45413c" stroke-linecap="round" stroke-linejoin="round" stroke-miterlimit="10" d="M33.4 27l-1.1-1.2"/><g id="XMLID_1218_"><circle id="XMLID_748_" cx="20" cy="39.5" r=".4" fill="#c0dceb"/><path id="XMLID_747_" d="M20 39.1c-.2 0-.4.2-.4.4s.2.4.4.4.4-.2.4-.4-.1-.4-.4-.4z" fill="#45413c"/></g><g id="XMLID_1217_"><circle id="XMLID_745_" cx="37.1" cy="39.5" r=".4" fill="#c0dceb"/><path id="XMLID_744_" d="M37.1 39.1c-.2 0-.4.2-.4.4s.2.4.4.4.4-.2.4-.4-.2-.4-.4-.4z" fill="#45413c"/></g><path id="XMLID_1214_" fill="none" stroke="#45413c" stroke-linecap="round" stroke-linejoin="round" stroke-miterlimit="10" d="M28.5 13.6v-2.4L33 9.9l-5.3-4.8 7.7 2 1.7-3.2"/><circle id="XMLID_1209_" cx="37.5" cy="2.6" r="2" fill="#ff6242" stroke="#45413c" stroke-linecap="round" stroke-linejoin="round" stroke-miterlimit="10"/><path id="XMLID_1208_" d="M14 36.3s-.4-5.3-2.8-4.9c-2.9.5-2 7.7.4 7.3 2-.3-1.6-6.9-4.5-6.1-1.6.5-1.9 2.3-2 3" fill="none" stroke="#45413c" stroke-linecap="round" stroke-linejoin="round" stroke-miterlimit="10"/><path id="XMLID_1207_" d="M43.1 30.6v2c2 0 3.7 1.5 4 3.4 0-.2.1-.4.1-.6v-.8c0-2.2-1.8-4-4.1-4z" fill="#ffaa54"/><path id="XMLID_1206_" d="M47.2 35.5c0 2.2-1.8 4.1-4.1 4.1v-8.9c2.2 0 4.1 1.8 4.1 4.1v.7z" fill="none" stroke="#45413c" stroke-linecap="round" stroke-linejoin="round" stroke-miterlimit="10"/><path id="XMLID_1205_" d="M1.4 33.5c0 1.5.8 3 2.3 4l.8.5c1.4.9 3 1 4.3.6l.3-.3-7.5-4.9c-.2 0-.2 0-.2.1z" fill="#ffaa54"/><path id="XMLID_1204_" d="M2.7 38.9C.8 37.7.3 35.2 1.5 33.3L9 38.2c-1.2 1.9-3.7 2.4-5.6 1.2l-.7-.5z" fill="none" stroke="#45413c" stroke-linecap="round" stroke-linejoin="round" stroke-miterlimit="10"/></g></g></symbol><symbol id="EMOJI-83" viewBox="0 0 48 48"><style/><symbol id="New_Symbol_14" viewBox="-6.5 -6.5 13 13"><path d="M0-6c2.2 0 4.1 1.5 4.7 3.5 0 0 0 0 0 0C6.3-2.5 6.4 0 5 0v1c0 2.8-2.2 5-5 5s-5-2.2-5-5V0c-1.4 0-1.3-2.5.2-2.5 0 0 0 0 0 0C-4.1-4.5-2.2-6 0-6z" fill="#ffd4c3" stroke="#504b46" stroke-linecap="round" stroke-linejoin="round" stroke-miterlimit="10"/><circle cx="-1.6" cy="-.1" r=".1" fill="#ffc258"/><path d="M-1.6.5c-.3 0-.6-.3-.6-.6s.2-.7.6-.7c.3 0 .6.3.6.7s-.3.6-.6.6z" fill="#4f4b45"/><circle cx="1.6" cy="-.1" r=".1" fill="#ffc258"/><path d="M1.6.5C1.3.5 1 .2 1-.1s.3-.6.6-.6.6.3.6.6-.2.6-.6.6z" fill="#4f4b45"/><circle cx="-3" cy="-1.5" r=".5" fill="#fabfa5"/><circle cx="3" cy="-1.5" r=".5" fill="#fabfa5"/><path d="M-1.2-3c.8-.5 1.7-.5 2.5 0" fill="none" stroke="#504b46" stroke-linecap="round" stroke-linejoin="round" stroke-miterlimit="10"/></symbol><g id="Icons"><g id="XMLID_727_"><path id="XMLID_1310_" d="M38.6 21.7c0-2.7-2.2-4.9-4.9-4.9H14.3c-2.7 0-4.9 2.2-4.9 4.9v17.9c0 2.7 2.2 4.9 4.9 4.9h19.5c2.7 0 4.9-2.2 4.9-4.9V21.7z" fill="#adc4d9"/><path id="XMLID_1309_" d="M33.7 16.9H14.3c-2.7 0-4.9 2.2-4.9 4.9v2.4c0-2.7 2.2-4.9 4.9-4.9h19.5c2.7 0 4.9 2.2 4.9 4.9v-2.4c-.1-2.8-2.3-4.9-5-4.9z" fill="#c0dceb"/><path id="XMLID_1308_" d="M38.6 32.7H27.2c-1.8 0-3.2-1.5-3.2-3.2V16.9h9.7c2.7 0 4.9 2.2 4.9 4.9v10.9z" fill="#8ca4b8"/><path id="XMLID_1307_" d="M38.4 20.3c-.6-2-2.5-3.4-4.7-3.4H24v2.4h9.7c2.7 0 4.9 2.2 4.9 4.9v-2.4c0-.6-.1-1.1-.2-1.5z" fill="#adc4d9"/><path id="XMLID_1306_" d="M38.6 21.7c0-2.7-2.2-4.9-4.9-4.9H14.3c-2.7 0-4.9 2.2-4.9 4.9v17.9c0 2.7 2.2 4.9 4.9 4.9h19.5c2.7 0 4.9-2.2 4.9-4.9V21.7z" fill="none" stroke="#45413c" stroke-linecap="round" stroke-linejoin="round" stroke-miterlimit="10"/><ellipse id="XMLID_1305_" cx="24" cy="45.5" rx="15.5" ry="1.5" opacity=".15" fill="#45413c"/><path id="XMLID_1304_" d="M33.7 44.1c0 .9-.7 1.6-1.6 1.6H15.9c-.9 0-1.6-.7-1.6-1.6v-5.7c0-.9.7-1.6 1.6-1.6h16.2c.9 0 1.6.7 1.6 1.6v5.7z" fill="#c0dceb"/><path id="XMLID_1303_" d="M33.7 38.4c0-.9-.7-1.6-1.6-1.6H15.9c-.9 0-1.6.7-1.6 1.6v2c0-.9.7-1.6 1.6-1.6h16.2c.9 0 1.6.7 1.6 1.6v-2z" fill="#daedf7"/><path id="XMLID_1302_" d="M33.7 44.1c0 .9-.7 1.6-1.6 1.6H15.9c-.9 0-1.6-.7-1.6-1.6v-5.7c0-.9.7-1.6 1.6-1.6h16.2c.9 0 1.6.7 1.6 1.6v5.7z" fill="none" stroke="#45413c" stroke-linecap="round" stroke-linejoin="round" stroke-miterlimit="10"/><circle id="XMLID_1301_" cx="16.3" cy="25" r="4.1" fill="#fff" stroke="#45413c" stroke-linecap="round" stroke-linejoin="round" stroke-miterlimit="10"/><circle id="XMLID_1300_" cx="16.3" cy="25" r="2" fill="#00dba8" stroke="#45413c" stroke-linecap="round" stroke-linejoin="round" stroke-miterlimit="10"/><circle id="XMLID_1299_" cx="31.7" cy="25" r="4.1" fill="#fff" stroke="#45413c" stroke-linecap="round" stroke-linejoin="round" stroke-miterlimit="10"/><circle id="XMLID_1298_" cx="31.7" cy="25" r="1.6" fill="#00b8f0" stroke="#45413c" stroke-linecap="round" stroke-linejoin="round" stroke-miterlimit="10"/><g id="XMLID_1297_"><circle id="XMLID_781_" cx="16.3" cy="38.4" r=".4" fill="#c0dceb"/><path id="XMLID_780_" d="M16.3 38c-.2 0-.4.2-.4.4s.2.4.4.4.4-.2.4-.4-.2-.4-.4-.4z" fill="#45413c"/></g><g id="XMLID_1296_"><circle id="XMLID_778_" cx="31.7" cy="38.4" r=".4" fill="#c0dceb"/><path id="XMLID_777_" d="M31.7 38c-.2 0-.4.2-.4.4s.2.4.4.4.4-.2.4-.4-.2-.4-.4-.4z" fill="#45413c"/></g><g id="XMLID_1295_"><circle id="XMLID_775_" cx="37" cy="30.3" r=".4" fill="#c0dceb"/><path id="XMLID_774_" d="M37 29.9c-.2 0-.4.2-.4.4s.2.4.4.4.4-.2.4-.4c0-.3-.2-.4-.4-.4z" fill="#45413c"/></g><g id="XMLID_1294_"><circle id="XMLID_754_" cx="26" cy="30.3" r=".4" fill="#c0dceb"/><path id="XMLID_753_" d="M26 29.9c-.2 0-.4.2-.4.4s.2.4.4.4.4-.2.4-.4c0-.3-.1-.4-.4-.4z" fill="#45413c"/></g><g id="XMLID_1293_"><circle id="XMLID_751_" cx="26" cy="18.5" r=".4" fill="#c0dceb"/><path id="XMLID_750_" d="M26 18.1c-.2 0-.4.2-.4.4s.2.4.4.4.4-.2.4-.4-.1-.4-.4-.4z" fill="#45413c"/></g><path id="XMLID_1292_" fill="none" stroke="#45413c" stroke-linecap="round" stroke-linejoin="round" stroke-miterlimit="10" d="M23.6 14v-2.4l4.5-1.2-5.3-4.9 7.7 2 1.3-2.6"/><circle id="XMLID_1291_" cx="32.5" cy="3" r="2" fill="#ff6242" stroke="#45413c" stroke-linecap="round" stroke-linejoin="round" stroke-miterlimit="10"/><path id="XMLID_1290_" d="M38.6 32.7H27.2c-1.8 0-3.2-1.5-3.2-3.2V16.9h9.7c2.7 0 4.9 2.2 4.9 4.9v10.9z" fill="none" stroke="#45413c" stroke-linecap="round" stroke-linejoin="round" stroke-miterlimit="10"/><path id="XMLID_1287_" fill="none" stroke="#45413c" stroke-linecap="round" stroke-linejoin="round" stroke-miterlimit="10" d="M31.7 22.1v1.3"/><path id="XMLID_1273_" fill="none" stroke="#45413c" stroke-linecap="round" stroke-linejoin="round" stroke-miterlimit="10" d="M34.6 25h-1.3"/><path id="XMLID_1272_" fill="none" stroke="#45413c" stroke-linecap="round" stroke-linejoin="round" stroke-miterlimit="10" d="M31.7 27.8v-1.2"/><path id="XMLID_1271_" fill="none" stroke="#45413c" stroke-linecap="round" stroke-linejoin="round" stroke-miterlimit="10" d="M28.9 25h1.2"/><path id="XMLID_1270_" d="M29.7 16.9H18.3c0-1.6 1.3-2.8 2.8-2.8h5.7c1.6-.1 2.9 1.2 2.9 2.8z" fill="#adc4d9" stroke="#45413c" stroke-linecap="round" stroke-linejoin="round" stroke-miterlimit="10"/><path id="XMLID_1269_" d="M39.4 37.2h-.8v-13h.8c1.3 0 2.4 1.1 2.4 2.4v8.1c.1 1.4-1 2.5-2.4 2.5z" fill="#ffe500" stroke="#45413c" stroke-linecap="round" stroke-linejoin="round" stroke-miterlimit="10"/><path id="XMLID_1268_" d="M8.6 37.2h.8v-13h-.8c-1.3 0-2.4 1.1-2.4 2.4v8.1c-.1 1.4 1 2.5 2.4 2.5z" fill="#ffe500" stroke="#45413c" stroke-linecap="round" stroke-linejoin="round" stroke-miterlimit="10"/></g></g></symbol><symbol id="EMOJI-86" viewBox="0 0 48 48"><style/><symbol id="New_Symbol_14" viewBox="-6.5 -6.5 13 13"><path d="M0-6c2.2 0 4.1 1.5 4.7 3.5 0 0 0 0 0 0C6.3-2.5 6.4 0 5 0v1c0 2.8-2.2 5-5 5s-5-2.2-5-5V0c-1.4 0-1.3-2.5.2-2.5 0 0 0 0 0 0C-4.1-4.5-2.2-6 0-6z" fill="#ffd4c3" stroke="#504b46" stroke-linecap="round" stroke-linejoin="round" stroke-miterlimit="10"/><circle cx="-1.6" cy="-.1" r=".1" fill="#ffc258"/><path d="M-1.6.5c-.3 0-.6-.3-.6-.6s.2-.7.6-.7c.3 0 .6.3.6.7s-.3.6-.6.6z" fill="#4f4b45"/><circle cx="1.6" cy="-.1" r=".1" fill="#ffc258"/><path d="M1.6.5C1.3.5 1 .2 1-.1s.3-.6.6-.6.6.3.6.6-.2.6-.6.6z" fill="#4f4b45"/><circle cx="-3" cy="-1.5" r=".5" fill="#fabfa5"/><circle cx="3" cy="-1.5" r=".5" fill="#fabfa5"/><path d="M-1.2-3c.8-.5 1.7-.5 2.5 0" fill="none" stroke="#504b46" stroke-linecap="round" stroke-linejoin="round" stroke-miterlimit="10"/></symbol><g id="Icons"><g id="XMLID_730_"><ellipse id="XMLID_1823_" cx="23.8" cy="44.9" rx="16" ry="1.5" opacity=".15" fill="#45413c"/><circle id="XMLID_1821_" cx="24" cy="21.6" r="20" fill="#ffe500"/><path id="XMLID_1818_" d="M24 1.6c-11 0-20 9-20 20s9 20 20 20 20-9 20-20-9-20-20-20zm0 37c-10.1 0-18.2-8.2-18.2-18.3-.1-10 8.1-18.2 18.2-18.2s18.2 8.2 18.2 18.2c0 10.1-8.1 18.3-18.2 18.3z" fill="#ebcb00"/><ellipse id="XMLID_1779_" cx="24" cy="5.6" rx="6" ry="1.5" fill="#fff48c"/><circle id="XMLID_1778_" cx="24" cy="21.6" r="20" fill="none" stroke="#45413c" stroke-linecap="round" stroke-linejoin="round" stroke-miterlimit="10"/><ellipse id="XMLID_1777_" cx="36" cy="26.6" rx="2.5" ry="1.5" fill="#ffaa54"/><ellipse id="XMLID_1776_" cx="12" cy="26.6" rx="2.5" ry="1.5" fill="#ffaa54"/><path id="XMLID_1772_" d="M24 38.6c5.6 0 10.3-4 11-9.2 0-.3-.1-.6-.3-.8-.2-.2-.6-.3-.9-.3-6.5 1-13 1-19.5 0-.3-.1-.7 0-.9.3-.2.2-.4.5-.3.8.6 5.2 5.3 9.2 10.9 9.2z" fill="#fff" stroke="#45413c" stroke-linecap="round" stroke-linejoin="round" stroke-miterlimit="10"/><path id="XMLID_1771_" d="M14 32.6s3.9 1.5 10 1.5 9.5-1 9.5-1" fill="#fff" stroke="#45413c" stroke-linecap="round" stroke-linejoin="round" stroke-miterlimit="10"/><path id="XMLID_1770_" fill="none" stroke="#45413c" stroke-linecap="round" stroke-linejoin="round" stroke-miterlimit="10" d="M24 29.1v9.5"/><path id="XMLID_1769_" d="M17.5 28.8s-.1 5.5 1 8.5" fill="none" stroke="#45413c" stroke-linecap="round" stroke-linejoin="round" stroke-miterlimit="10"/><path id="XMLID_1768_" d="M30.5 28.8s.1 5.5-1 8.5" fill="none" stroke="#45413c" stroke-linecap="round" stroke-linejoin="round" stroke-miterlimit="10"/><path id="XMLID_1767_" d="M32.1 21.9l-3 1.6c-.7.4-1.6-.2-1.5-1.1l.6-3.4c.1-.3-.1-.7-.3-.9l-2.4-2.4c-.6-.6-.3-1.6.6-1.7l3.4-.5c.3 0 .6-.3.8-.5l1.5-3.1c.4-.7 1.4-.7 1.8 0L35 13c.1.3.4.5.8.5l3.4.5c.8.1 1.1 1.1.6 1.7l-2.4 2.4c-.2.2-.3.6-.3.9l.6 3.4c.1.8-.7 1.4-1.5 1.1l-3-1.6c-.4-.2-.8-.2-1.1 0z" fill="#ebcb00"/><path id="XMLID_1766_" d="M14.9 22.1l-3 1.6c-.7.4-1.6-.2-1.5-1.1l.6-3.4c.1-.3-.1-.7-.3-.9L8.3 16c-.6-.6-.3-1.6.6-1.7l3.4-.5c.3 0 .6-.3.8-.5l1.5-3.1c.4-.7 1.4-.7 1.8 0l1.5 3.1c.1.3.4.5.8.5l3.4.5c.8.1 1.1 1.1.6 1.7l-2.4 2.4c-.2.2-.3.6-.3.9l.6 3.4c.1.8-.7 1.4-1.5 1.1l-3-1.6c-.5-.3-.9-.3-1.2-.1z" fill="#ebcb00"/><path id="XMLID_1765_" d="M33.7 19.5l-3 1.6c-.7.4-1.6-.2-1.5-1.1l.6-3.4c.1-.3-.1-.7-.3-.9l-2.4-2.4c-.6-.6-.3-1.6.6-1.7l3.4-.5c.3 0 .6-.3.8-.5l1.5-3.1c.4-.7 1.4-.7 1.8 0l1.5 3.1c.1.3.4.5.8.5l3.4.5c.8.1 1.1 1.1.6 1.7l-2.4 2.4c-.2.2-.3.6-.3.9l.6 3.4c.1.8-.7 1.4-1.5 1.1l-3-1.6c-.6-.2-.9-.2-1.2 0z" fill="#fffacf"/><g id="XMLID_1763_"><path id="XMLID_1764_" d="M38.8 18.3l-3.1-1.6c-.4-.2-.9-.2-1.3 0l-4.3 2.2c-.3.1-.6.2-.8.2l-.1.9c-.1.8.7 1.4 1.5 1.1l3-1.6c.3-.2.6-.2.9 0l3 1.6c.7.4 1.6-.2 1.5-1.1l-.3-1.7z" fill="#fff48c"/></g><path id="XMLID_1762_" d="M33.7 19.5l-3 1.6c-.7.4-1.6-.2-1.5-1.1l.6-3.4c.1-.3-.1-.7-.3-.9l-2.4-2.4c-.6-.6-.3-1.6.6-1.7l3.4-.5c.3 0 .6-.3.8-.5l1.5-3.1c.4-.7 1.4-.7 1.8 0l1.5 3.1c.1.3.4.5.8.5l3.4.5c.8.1 1.1 1.1.6 1.7l-2.4 2.4c-.2.2-.3.6-.3.9l.6 3.4c.1.8-.7 1.4-1.5 1.1l-3-1.6c-.6-.2-.9-.2-1.2 0z" fill="none" stroke="#45413c" stroke-linecap="round" stroke-linejoin="round" stroke-miterlimit="10"/><path id="XMLID_1761_" d="M14.6 19.5l3 1.6c.7.4 1.6-.2 1.5-1.1l-.6-3.4c-.1-.3.1-.7.3-.9l2.4-2.4c.6-.6.3-1.6-.6-1.7l-3.4-.5c-.3 0-.6-.3-.8-.5L15 7.5c-.4-.7-1.4-.7-1.8 0l-1.5 3.1c-.1.3-.4.5-.8.5l-3.4.5c-.8.1-1.1 1.1-.6 1.7l2.4 2.4c.2.2.3.6.3.9L9.2 20c-.1.8.7 1.4 1.5 1.1l3-1.6c.2-.2.6-.2.9 0z" fill="#fffacf"/><g id="XMLID_1759_"><path id="XMLID_1760_" d="M9.4 18.3l3.1-1.6c.4-.2.9-.2 1.3 0l4.3 2.2c.3.1.6.2.8.2l.1.9c.1.8-.7 1.4-1.5 1.1l-3-1.6c-.3-.2-.6-.2-.9 0l-3 1.6c-.7.3-1.6-.3-1.4-1.1l.2-1.7z" fill="#fff48c"/></g><path id="XMLID_1758_" d="M14.6 19.5l3 1.6c.7.4 1.6-.2 1.5-1.1l-.6-3.4c-.1-.3.1-.7.3-.9l2.4-2.4c.6-.6.3-1.6-.6-1.7l-3.4-.5c-.3 0-.6-.3-.8-.5L15 7.5c-.4-.7-1.4-.7-1.8 0l-1.5 3.1c-.1.3-.4.5-.8.5l-3.4.5c-.8.1-1.1 1.1-.6 1.7l2.4 2.4c.2.2.3.6.3.9L9.2 20c-.1.8.7 1.4 1.5 1.1l3-1.6c.2-.2.6-.2.9 0z" fill="none" stroke="#45413c" stroke-linecap="round" stroke-linejoin="round" stroke-miterlimit="10"/></g></g></symbol><symbol id="EMOJI-92" viewBox="0 0 48 48"><style/><symbol id="New_Symbol_14" viewBox="-6.5 -6.5 13 13"><path d="M0-6c2.2 0 4.1 1.5 4.7 3.5 0 0 0 0 0 0C6.3-2.5 6.4 0 5 0v1c0 2.8-2.2 5-5 5s-5-2.2-5-5V0c-1.4 0-1.3-2.5.2-2.5 0 0 0 0 0 0C-4.1-4.5-2.2-6 0-6z" fill="#ffd4c3" stroke="#504b46" stroke-linecap="round" stroke-linejoin="round" stroke-miterlimit="10"/><circle cx="-1.6" cy="-.1" r=".1" fill="#ffc258"/><path d="M-1.6.5c-.3 0-.6-.3-.6-.6s.2-.7.6-.7c.3 0 .6.3.6.7s-.3.6-.6.6z" fill="#4f4b45"/><circle cx="1.6" cy="-.1" r=".1" fill="#ffc258"/><path d="M1.6.5C1.3.5 1 .2 1-.1s.3-.6.6-.6.6.3.6.6-.2.6-.6.6z" fill="#4f4b45"/><circle cx="-3" cy="-1.5" r=".5" fill="#fabfa5"/><circle cx="3" cy="-1.5" r=".5" fill="#fabfa5"/><path d="M-1.2-3c.8-.5 1.7-.5 2.5 0" fill="none" stroke="#504b46" stroke-linecap="round" stroke-linejoin="round" stroke-miterlimit="10"/></symbol><g id="Icons"><g id="XMLID_736_"><ellipse id="XMLID_2401_" cx="24" cy="45.5" rx="12" ry="1.5" opacity=".15" fill="#45413c"/><path id="XMLID_2387_" d="M24 31.1c-18.4 0-26-8.6-21.8-14.5 3.7-5.1 11.1 2.9 21.8 2.9s18.1-8 21.8-2.9C50 22.5 42.4 31.1 24 31.1z" fill="#f0d5a8"/><path id="XMLID_2386_" d="M44.2 15.3c-4-1.9-10.9 4.2-20.2 4.2S7.8 13.3 3.8 15.3C.6 20.7 7.7 28.1 24 28.1s23.4-7.4 20.2-12.8z" fill="#debb7e"/><path id="XMLID_2385_" d="M24 31.1c-18.4 0-26-8.6-21.8-14.5 3.7-5.1 11.1 2.9 21.8 2.9s18.1-8 21.8-2.9C50 22.5 42.4 31.1 24 31.1z" fill="none" stroke="#45413c" stroke-linecap="round" stroke-linejoin="round" stroke-miterlimit="10"/><circle id="XMLID_2384_" cx="24" cy="27.5" r="14.5" fill="#ffe500"/><path id="XMLID_2383_" d="M24 13c-5.1 0-9.6 2.7-12.2 6.7 3.6 1.5 7.7 2.9 12.3 2.9 4.5 0 8.6-1.3 12.1-2.8-2.5-4.1-7-6.8-12.2-6.8z" fill="#ebcb00"/><path id="XMLID_2380_" d="M24 13c-8 0-14.5 6.5-14.5 14.5S16 42 24 42s14.5-6.5 14.5-14.5S32 13 24 13zm0 26.8c-7.3 0-13.2-5.9-13.2-13.2 0-7.3 5.9-13.2 13.2-13.2s13.2 5.9 13.2 13.2c0 7.3-5.9 13.2-13.2 13.2z" fill="#ebcb00"/><circle id="XMLID_2378_" cx="24" cy="27.5" r="14.5" fill="none" stroke="#45413c" stroke-linecap="round" stroke-linejoin="round" stroke-miterlimit="10"/><ellipse id="XMLID_2377_" cx="32.7" cy="31.1" rx="1.8" ry="1.1" fill="#ffaa54"/><ellipse id="XMLID_2376_" cx="15.3" cy="31.1" rx="1.8" ry="1.1" fill="#ffaa54"/><circle id="XMLID_2375_" cx="16.4" cy="26.8" r=".7" fill="#45413c" stroke="#45413c" stroke-linecap="round" stroke-linejoin="round" stroke-miterlimit="10"/><circle id="XMLID_2374_" cx="31.6" cy="26.8" r=".7" fill="#45413c" stroke="#45413c" stroke-linecap="round" stroke-linejoin="round" stroke-miterlimit="10"/><path id="XMLID_2373_" d="M24 39.8c4.1 0 7.5-2.9 8-6.6 0-.2-.1-.5-.2-.6-.2-.2-.4-.2-.7-.2-4.7.8-9.4.8-14.2 0-.2 0-.5 0-.7.2-.1.1-.2.4-.2.6.5 3.7 3.9 6.6 8 6.6z" fill="#ffb0ca" stroke="#45413c" stroke-linecap="round" stroke-linejoin="round" stroke-miterlimit="10"/><path id="XMLID_2372_" d="M24 36.2c-2.3 0-4.5.5-5.9 1.2 1.5 1.5 3.5 2.4 5.9 2.4s4.4-.9 5.9-2.4c-1.4-.7-3.6-1.2-5.9-1.2z" fill="#ff87af" stroke="#45413c" stroke-linecap="round" stroke-linejoin="round" stroke-miterlimit="10"/><path id="XMLID_2371_" d="M24 19.5c4.2 0 7.8-1.2 11-2.4l-2-6.5c-.2-.8-.7-1.6-1.4-2.1L29 6.4c-.6-.5-1.5-.6-2.2-.1-.8.5-1.6 1.1-2.9 1.1-1.3 0-2.1-.5-2.9-1.1-.7-.4-1.6-.4-2.2.1l-2.6 2.1c-.5.5-1 1.2-1.2 2.1l-2 6.5c3.2 1.2 6.8 2.4 11 2.4z" fill="#b89558"/><path id="XMLID_1415_" d="M15.4 11.1L18.3 9c.7-.5 1.7-.6 2.5-.1.9.5 1.8 1.1 3.2 1.1 1.4 0 2.3-.5 3.2-1.1.8-.5 1.8-.4 2.5.1l2.9 2.1c.3.2.6.5.9.8l-.5-1.3c-.2-.8-.7-1.6-1.4-2.1L29 6.4c-.6-.5-1.5-.6-2.2-.1-.8.5-1.6 1.1-2.9 1.1-1.3 0-2.1-.5-2.9-1.1-.7-.4-1.6-.4-2.2.1l-2.6 2.1c-.5.5-1 1.2-1.2 2.1l-.4 1.3c.2-.3.5-.6.8-.8z" fill="#debb7e"/><path id="XMLID_2369_" d="M24 19.5c4.2 0 7.8-1.2 11-2.4l-2-6.5c-.2-.8-.7-1.6-1.4-2.1L29 6.4c-.6-.5-1.5-.6-2.2-.1-.8.5-1.6 1.1-2.9 1.1-1.3 0-2.1-.5-2.9-1.1-.7-.4-1.6-.4-2.2.1l-2.6 2.1c-.5.5-1 1.2-1.2 2.1l-2 6.5c3.2 1.2 6.8 2.4 11 2.4z" fill="none" stroke="#45413c" stroke-linecap="round" stroke-linejoin="round" stroke-miterlimit="10"/></g></g></symbol><symbol id="EMOJI-93" viewBox="0 0 48 48"><style/><symbol id="New_Symbol_14" viewBox="-6.5 -6.5 13 13"><path d="M0-6c2.2 0 4.1 1.5 4.7 3.5 0 0 0 0 0 0C6.3-2.5 6.4 0 5 0v1c0 2.8-2.2 5-5 5s-5-2.2-5-5V0c-1.4 0-1.3-2.5.2-2.5 0 0 0 0 0 0C-4.1-4.5-2.2-6 0-6z" fill="#ffd4c3" stroke="#504b46" stroke-linecap="round" stroke-linejoin="round" stroke-miterlimit="10"/><circle cx="-1.6" cy="-.1" r=".1" fill="#ffc258"/><path d="M-1.6.5c-.3 0-.6-.3-.6-.6s.2-.7.6-.7c.3 0 .6.3.6.7s-.3.6-.6.6z" fill="#4f4b45"/><circle cx="1.6" cy="-.1" r=".1" fill="#ffc258"/><path d="M1.6.5C1.3.5 1 .2 1-.1s.3-.6.6-.6.6.3.6.6-.2.6-.6.6z" fill="#4f4b45"/><circle cx="-3" cy="-1.5" r=".5" fill="#fabfa5"/><circle cx="3" cy="-1.5" r=".5" fill="#fabfa5"/><path d="M-1.2-3c.8-.5 1.7-.5 2.5 0" fill="none" stroke="#504b46" stroke-linecap="round" stroke-linejoin="round" stroke-miterlimit="10"/></symbol><g id="Icons"><g id="XMLID_737_"><ellipse id="XMLID_2425_" cx="24" cy="45.1" rx="16" ry="1.5" opacity=".15" fill="#45413c"/><path id="XMLID_47_" d="M42.7 9.5c.5-.7.8-1.6.8-2.6 0-2.5-2-4.5-4.5-4.5-1 0-1.9.3-2.6.8-.3-1.1-1.2-1.8-2.4-1.8-1.4 0-2.5 1.1-2.5 2.5s1.1 2.5 2.5 2.5c.2 0 .4 0 .6-.1 0 .2-.1.4-.1.6 0 2.5 2 4.5 4.5 4.5.2 0 .4 0 .6-.1 0 .2-.1.4-.1.6 0 1.4 1.1 2.5 2.5 2.5s2.5-1.1 2.5-2.5c0-1.2-.8-2.1-1.8-2.4z" fill="#00b8f0" stroke="#45413c" stroke-linecap="round" stroke-linejoin="round" stroke-miterlimit="10"/><path id="XMLID_46_" d="M5.3 9.5c-.5-.7-.8-1.6-.8-2.6 0-2.5 2-4.5 4.5-4.5 1 0 1.9.3 2.6.8.3-1.1 1.2-1.8 2.4-1.8 1.4 0 2.5 1.1 2.5 2.5S15.4 6.4 14 6.4c-.2 0-.4 0-.6-.1 0 .2.1.4.1.6 0 2.5-2 4.5-4.5 4.5-.2 0-.4 0-.6-.1 0 .2.1.4.1.6 0 1.4-1.1 2.5-2.5 2.5s-2.5-1.1-2.5-2.5c0-1.2.8-2.1 1.8-2.4z" fill="#00b8f0" stroke="#45413c" stroke-linecap="round" stroke-linejoin="round" stroke-miterlimit="10"/><circle id="XMLID_45_" cx="24" cy="22.4" r="20" fill="#fffce5"/><path id="XMLID_1061_" d="M24 2.4c-11 0-20 9-20 20s9 20 20 20 20-9 20-20-9-20-20-20zm0 37c-10.1 0-18.2-8.2-18.2-18.3-.1-10 8.1-18.2 18.2-18.2s18.2 8.2 18.2 18.2c0 10.1-8.1 18.3-18.2 18.3z" fill="#fffacf"/><ellipse id="XMLID_1060_" cx="24" cy="6.4" rx="6" ry="1.5" fill="#fff"/><circle id="XMLID_1059_" cx="24" cy="22.4" r="20" fill="none" stroke="#45413c" stroke-linecap="round" stroke-linejoin="round" stroke-miterlimit="10"/><ellipse id="XMLID_1058_" cx="36.5" cy="27.4" rx="2.5" ry="1.5" fill="#ff87af"/><ellipse id="XMLID_1057_" cx="11.5" cy="27.4" rx="2.5" ry="1.5" fill="#ff87af"/><ellipse id="XMLID_44_" cx="24" cy="25.9" rx="4.5" ry="3.5" fill="#ff6242"/><path id="XMLID_43_" d="M24 24.4c2 0 3.7 1.1 4.3 2.5.1-.3.2-.6.2-1 0-1.9-2-3.5-4.5-3.5s-4.5 1.6-4.5 3.5c0 .4.1.7.2 1 .6-1.5 2.3-2.5 4.3-2.5z" fill="#ff866e"/><ellipse id="XMLID_1010_" cx="24" cy="25.9" rx="4.5" ry="3.5" fill="none" stroke="#45413c" stroke-linecap="round" stroke-linejoin="round" stroke-miterlimit="10"/><path id="XMLID_1009_" d="M24 37.9c-4.8 0-7.9-2.5-9-4-.8-1.1-.6-2.7.6-3.5 1.1-.8 2.7-.6 3.5.5.1.1 1.6 2 5 2s4.9-1.9 5-2c.8-1.1 2.4-1.3 3.5-.5s1.3 2.3.5 3.4c-1.2 1.6-4.3 4.1-9.1 4.1z" fill="#ff6242"/><path id="XMLID_42_" d="M14.6 32.1c1.2-.9 2.9-.6 3.8.6.1.1 1.8 2.2 5.5 2.2 3.8 0 5.5-2.1 5.5-2.2.9-1.2 2.6-1.4 3.9-.5l.1.1c-.1-.7-.4-1.4-1-1.8-1.1-.8-2.6-.6-3.5.5-.1.1-1.6 2-5 2s-4.9-1.9-5-2c-.8-1.1-2.4-1.3-3.5-.5-.6.4-1 1.1-1 1.8l.2-.2z" fill="#ff866e"/><path id="XMLID_1007_" d="M24 37.9c-4.8 0-7.9-2.5-9-4-.8-1.1-.6-2.7.6-3.5 1.1-.8 2.7-.6 3.5.5.1.1 1.6 2 5 2s4.9-1.9 5-2c.8-1.1 2.4-1.3 3.5-.5s1.3 2.3.5 3.4c-1.2 1.6-4.3 4.1-9.1 4.1z" fill="none" stroke="#45413c" stroke-linecap="round" stroke-linejoin="round" stroke-miterlimit="10"/><path id="XMLID_1006_" d="M17.5 32.9s1.9 2.5 6.5 2.5 6.5-2.5 6.5-2.5" fill="none" stroke="#45413c" stroke-linecap="round" stroke-linejoin="round" stroke-miterlimit="10"/><ellipse id="XMLID_1005_" cx="33.5" cy="20.4" rx="3.5" ry="4" fill="#4acfff" stroke="#45413c" stroke-linecap="round" stroke-linejoin="round" stroke-miterlimit="10"/><ellipse id="XMLID_1004_" cx="14.5" cy="20.4" rx="3.5" ry="4" fill="#4acfff" stroke="#45413c" stroke-linecap="round" stroke-linejoin="round" stroke-miterlimit="10"/><circle id="XMLID_41_" cx="14.5" cy="20.4" r="1" fill="#45413c" stroke="#45413c" stroke-linecap="round" stroke-linejoin="round" stroke-miterlimit="10"/><circle id="XMLID_40_" cx="33.5" cy="20.4" r="1" fill="#45413c" stroke="#45413c" stroke-linecap="round" stroke-linejoin="round" stroke-miterlimit="10"/><path id="XMLID_39_" d="M30 13.9s.9-2.5 3.5-2.5 3.5 2.5 3.5 2.5" fill="none" stroke="#45413c" stroke-linecap="round" stroke-linejoin="round" stroke-miterlimit="10"/><path id="XMLID_38_" d="M11 13.9s.9-2.5 3.5-2.5 3.5 2.5 3.5 2.5" fill="none" stroke="#45413c" stroke-linecap="round" stroke-linejoin="round" stroke-miterlimit="10"/></g></g></symbol><symbol id="EMOJI-94" viewBox="0 0 48 48"><style/><symbol id="New_Symbol_14" viewBox="-6.5 -6.5 13 13"><path d="M0-6c2.2 0 4.1 1.5 4.7 3.5 0 0 0 0 0 0C6.3-2.5 6.4 0 5 0v1c0 2.8-2.2 5-5 5s-5-2.2-5-5V0c-1.4 0-1.3-2.5.2-2.5 0 0 0 0 0 0C-4.1-4.5-2.2-6 0-6z" fill="#ffd4c3" stroke="#504b46" stroke-linecap="round" stroke-linejoin="round" stroke-miterlimit="10"/><circle cx="-1.6" cy="-.1" r=".1" fill="#ffc258"/><path d="M-1.6.5c-.3 0-.6-.3-.6-.6s.2-.7.6-.7c.3 0 .6.3.6.7s-.3.6-.6.6z" fill="#4f4b45"/><circle cx="1.6" cy="-.1" r=".1" fill="#ffc258"/><path d="M1.6.5C1.3.5 1 .2 1-.1s.3-.6.6-.6.6.3.6.6-.2.6-.6.6z" fill="#4f4b45"/><circle cx="-3" cy="-1.5" r=".5" fill="#fabfa5"/><circle cx="3" cy="-1.5" r=".5" fill="#fabfa5"/><path d="M-1.2-3c.8-.5 1.7-.5 2.5 0" fill="none" stroke="#504b46" stroke-linecap="round" stroke-linejoin="round" stroke-miterlimit="10"/></symbol><g id="Icons"><g id="XMLID_738_"><ellipse id="XMLID_611_" cx="24" cy="45" rx="15.6" ry="1.7" opacity=".15" fill="#45413c"/><circle id="XMLID_610_" cx="24" cy="23.6" r="18.1" fill="#ffda8f"/><path id="XMLID_607_" d="M24 5.5c-10 0-18.1 8.1-18.1 18.1s8.1 18 18.1 18c10 0 18.1-8.1 18.1-18.1S34 5.5 24 5.5zm0 33.4c-9.1 0-16.5-7.4-16.5-16.5S14.9 5.9 24 5.9s16.5 7.4 16.5 16.5S33.1 38.9 24 38.9z" fill="#ffbe3d"/><circle id="XMLID_606_" cx="24" cy="23.6" r="18.1" fill="none" stroke="#45413c" stroke-linecap="round" stroke-linejoin="round" stroke-miterlimit="10"/><ellipse id="XMLID_605_" cx="34.9" cy="32.1" rx="2.3" ry="1.4" fill="#ffe9bd"/><ellipse id="XMLID_604_" cx="13.1" cy="32.1" rx="2.3" ry="1.4" fill="#ffe9bd"/><path id="XMLID_603_" d="M16.2 26.3c0 .9-.7 1.7-1.7 1.7-.9 0-1.7-.7-1.7-1.7" fill="none" stroke="#45413c" stroke-linecap="round" stroke-linejoin="round" stroke-miterlimit="10"/><path id="XMLID_602_" d="M31.8 26.3c0 .9.7 1.7 1.7 1.7.9 0 1.7-.7 1.7-1.7" fill="none" stroke="#45413c" stroke-linecap="round" stroke-linejoin="round" stroke-miterlimit="10"/><path id="XMLID_601_" fill="none" stroke="#45413c" stroke-linecap="round" stroke-linejoin="round" stroke-miterlimit="10" d="M22.1 36.5h3.8"/><path id="XMLID_600_" d="M5.3 20C5.3 9.7 13.7 1.3 24 1.3c10.3 0 18.7 8.4 18.7 18.7H5.3z" fill="#ffe500"/><path id="XMLID_599_" d="M24 5.5c8.9 0 16.3 6.2 18.2 14.5h.5C42.7 9.7 34.3 1.3 24 1.3 13.7 1.3 5.3 9.7 5.3 20h.5C7.7 11.7 15.1 5.5 24 5.5z" fill="#fff48c"/><path id="XMLID_598_" d="M5.3 20C5.3 9.7 13.7 1.3 24 1.3c10.3 0 18.7 8.4 18.7 18.7H5.3z" fill="none" stroke="#45413c" stroke-linecap="round" stroke-linejoin="round" stroke-miterlimit="10"/><path id="XMLID_597_" d="M3.3 18.8c0-1.1 1-1.9 2-1.6 3.3.7 10.5 2 18.7 2s15.4-1.3 18.7-2c1-.2 2 .6 2 1.6v1.4c0 .8-.6 1.5-1.4 1.7-3 .6-11 2.1-19.3 2.1S7.7 22.5 4.6 21.9c-.8-.2-1.4-.9-1.4-1.7v-1.4z" fill="#ffe500"/><path id="XMLID_593_" d="M42.7 17.1c-3.3.7-10.5 2-18.7 2s-15.4-1.3-18.7-2c-1-.2-2 .6-2 1.6v1.4c0 .2 0 .3.1.4.2-.8 1.1-1.4 2-1.2 3.3.7 10.5 2 18.7 2s15.4-1.3 18.7-2c.9-.2 1.7.4 2 1.2 0-.1.1-.3.1-.4v-1.4c-.1-1-1.1-1.8-2.2-1.6z" fill="#fff48c"/><path id="XMLID_591_" d="M3.3 18.8c0-1.1 1-1.9 2-1.6 3.3.7 10.5 2 18.7 2s15.4-1.3 18.7-2c1-.2 2 .6 2 1.6v1.4c0 .8-.6 1.5-1.4 1.7-3 .6-11 2.1-19.3 2.1S7.7 22.5 4.6 21.9c-.8-.2-1.4-.9-1.4-1.7v-1.4z" fill="none" stroke="#45413c" stroke-linecap="round" stroke-linejoin="round" stroke-miterlimit="10"/><path id="XMLID_590_" d="M28.2 9.1h-2.1V7c0-.6-.5-1.1-1.1-1.1h-2c-.6 0-1.1.5-1.1 1.1v2.1h-2.1c-.6 0-1.1.5-1.1 1.1v2c0 .6.5 1.1 1.1 1.1h2.1v2.1c0 .6.5 1.1 1.1 1.1h2c.6 0 1.1-.5 1.1-1.1v-2.1h2.1c.6 0 1.1-.5 1.1-1.1v-2c0-.6-.5-1.1-1.1-1.1z" fill="#6dd627" stroke="#45413c" stroke-linecap="round" stroke-linejoin="round" stroke-miterlimit="10"/></g></g></symbol><symbol id="EMOJI-95" viewBox="0 0 48 48"><style/><symbol id="New_Symbol_14" viewBox="-6.5 -6.5 13 13"><path d="M0-6c2.2 0 4.1 1.5 4.7 3.5 0 0 0 0 0 0C6.3-2.5 6.4 0 5 0v1c0 2.8-2.2 5-5 5s-5-2.2-5-5V0c-1.4 0-1.3-2.5.2-2.5 0 0 0 0 0 0C-4.1-4.5-2.2-6 0-6z" fill="#ffd4c3" stroke="#504b46" stroke-linecap="round" stroke-linejoin="round" stroke-miterlimit="10"/><circle cx="-1.6" cy="-.1" r=".1" fill="#ffc258"/><path d="M-1.6.5c-.3 0-.6-.3-.6-.6s.2-.7.6-.7c.3 0 .6.3.6.7s-.3.6-.6.6z" fill="#4f4b45"/><circle cx="1.6" cy="-.1" r=".1" fill="#ffc258"/><path d="M1.6.5C1.3.5 1 .2 1-.1s.3-.6.6-.6.6.3.6.6-.2.6-.6.6z" fill="#4f4b45"/><circle cx="-3" cy="-1.5" r=".5" fill="#fabfa5"/><circle cx="3" cy="-1.5" r=".5" fill="#fabfa5"/><path d="M-1.2-3c.8-.5 1.7-.5 2.5 0" fill="none" stroke="#504b46" stroke-linecap="round" stroke-linejoin="round" stroke-miterlimit="10"/></symbol><g id="Icons"><g id="XMLID_739_"><ellipse id="XMLID_2210_" cx="24" cy="45.4" rx="11.5" ry="1.5" opacity=".15" fill="#45413c"/><g id="XMLID_2206_"><path id="XMLID_2209_" d="M24 11.1c0-5.5 4.5-10 10-10 7 0 10 7 10 12.5 0 14.6-13.8 23.9-18.5 26.7-.9.6-2.1.6-3 0C17.8 37.5 4 28.1 4 13.6 4 8 7 1.1 14 1.1c5.5 0 10 4.4 10 10z" fill="#ff6242"/><path id="XMLID_2208_" d="M13.5 6.1c4.3 0 8 2.6 9.6 6.2.3.8 1.5.8 1.8 0 1.6-3.7 5.3-6.2 9.6-6.2 5 0 8.1 3.4 9.5 7.4C44 8 41 1.1 34 1.1c-5.5 0-10 4.5-10 10 0-5.5-4.5-10-10-10-7 0-10 6.8-10 12.3 1.4-3.9 4.5-7.3 9.5-7.3z" fill="#ff866e"/><path id="XMLID_2207_" d="M24 11.1c0-5.5 4.5-10 10-10 7 0 10 7 10 12.5 0 14.6-13.8 23.9-18.5 26.7-.9.6-2.1.6-3 0C17.8 37.5 4 28.1 4 13.6 4 8 7 1.1 14 1.1c5.5 0 10 4.4 10 10z" fill="none" stroke="#45413c" stroke-linecap="round" stroke-linejoin="round" stroke-miterlimit="10"/></g></g></g></symbol><symbol id="EMOJI-96" viewBox="0 0 48 48"><style/><symbol id="New_Symbol_14" viewBox="-6.5 -6.5 13 13"><path d="M0-6c2.2 0 4.1 1.5 4.7 3.5 0 0 0 0 0 0C6.3-2.5 6.4 0 5 0v1c0 2.8-2.2 5-5 5s-5-2.2-5-5V0c-1.4 0-1.3-2.5.2-2.5 0 0 0 0 0 0C-4.1-4.5-2.2-6 0-6z" fill="#ffd4c3" stroke="#504b46" stroke-linecap="round" stroke-linejoin="round" stroke-miterlimit="10"/><circle cx="-1.6" cy="-.1" r=".1" fill="#ffc258"/><path d="M-1.6.5c-.3 0-.6-.3-.6-.6s.2-.7.6-.7c.3 0 .6.3.6.7s-.3.6-.6.6z" fill="#4f4b45"/><circle cx="1.6" cy="-.1" r=".1" fill="#ffc258"/><path d="M1.6.5C1.3.5 1 .2 1-.1s.3-.6.6-.6.6.3.6.6-.2.6-.6.6z" fill="#4f4b45"/><circle cx="-3" cy="-1.5" r=".5" fill="#fabfa5"/><circle cx="3" cy="-1.5" r=".5" fill="#fabfa5"/><path d="M-1.2-3c.8-.5 1.7-.5 2.5 0" fill="none" stroke="#504b46" stroke-linecap="round" stroke-linejoin="round" stroke-miterlimit="10"/></symbol><g id="Icons"><g id="XMLID_740_"><ellipse id="XMLID_2205_" cx="24" cy="45.4" rx="11.5" ry="1.5" opacity=".15" fill="#45413c"/><g id="XMLID_2201_"><path id="XMLID_2204_" d="M32.5 39.8c0-.6-.4-1-.9-1-6-.5-5-6.3-5-6.3 1.5 1.5 3.6 2.4 5.9 2.4 6 0 8.5-5.9 8.5-10.6 0-12.8-12.4-20.9-16-23-.6-.4-1.4-.4-2 0C19.4 3.4 7 11.5 7 24.2c0 4.7 2.5 10.6 8.5 10.6 2.3 0 4.4-.9 5.9-2.4 0 0 1 5.8-5 6.3-.5 0-.9.5-.9 1 0 .6.4 1 1 1h15c.6.1 1-.4 1-.9z" fill="#525252"/><path id="XMLID_2203_" d="M23 6.3c.6-.4 1.4-.4 2 0 3.4 1.9 14.2 9 15.8 20.1.1-.8.2-1.5.2-2.3C41 11.5 28.6 3.4 25 1.3c-.6-.4-1.4-.4-2 0C19.4 3.4 7 11.5 7 24.2c0 .7.1 1.5.2 2.3C8.8 15.3 19.7 8.3 23 6.3z" fill="#656769"/><path id="XMLID_2202_" d="M32.5 39.8h0c0-.6-.4-1-.9-1-6-.5-5-6.3-5-6.3 1.5 1.5 3.6 2.4 5.9 2.4 6 0 8.5-5.9 8.5-10.6 0-12.8-12.4-20.9-16-23-.6-.4-1.4-.4-2 0C19.4 3.4 7 11.5 7 24.2c0 4.7 2.5 10.6 8.5 10.6 2.3 0 4.4-.9 5.9-2.4 0 0 1 5.8-5 6.3-.5 0-.9.5-.9 1v0c0 .6.4 1 1 1h15c.6.1 1-.4 1-.9z" fill="none" stroke="#45413c" stroke-linecap="round" stroke-linejoin="round" stroke-miterlimit="10"/></g></g></g></symbol><symbol id="EMOJI-97" viewBox="0 0 48 48"><style/><symbol id="New_Symbol_14" viewBox="-6.5 -6.5 13 13"><path d="M0-6c2.2 0 4.1 1.5 4.7 3.5 0 0 0 0 0 0C6.3-2.5 6.4 0 5 0v1c0 2.8-2.2 5-5 5s-5-2.2-5-5V0c-1.4 0-1.3-2.5.2-2.5 0 0 0 0 0 0C-4.1-4.5-2.2-6 0-6z" fill="#ffd4c3" stroke="#504b46" stroke-linecap="round" stroke-linejoin="round" stroke-miterlimit="10"/><circle cx="-1.6" cy="-.1" r=".1" fill="#ffc258"/><path d="M-1.6.5c-.3 0-.6-.3-.6-.6s.2-.7.6-.7c.3 0 .6.3.6.7s-.3.6-.6.6z" fill="#4f4b45"/><circle cx="1.6" cy="-.1" r=".1" fill="#ffc258"/><path d="M1.6.5C1.3.5 1 .2 1-.1s.3-.6.6-.6.6.3.6.6-.2.6-.6.6z" fill="#4f4b45"/><circle cx="-3" cy="-1.5" r=".5" fill="#fabfa5"/><circle cx="3" cy="-1.5" r=".5" fill="#fabfa5"/><path d="M-1.2-3c.8-.5 1.7-.5 2.5 0" fill="none" stroke="#504b46" stroke-linecap="round" stroke-linejoin="round" stroke-miterlimit="10"/></symbol><g id="Icons"><g id="XMLID_741_"><ellipse id="XMLID_2200_" cx="24" cy="45.4" rx="11.5" ry="1.5" opacity=".15" fill="#45413c"/><g id="XMLID_2196_"><path id="XMLID_2199_" d="M23.2 40.3L9 21.5c-.3-.4-.3-.8 0-1.2L23.2 1.5c.4-.5 1.2-.5 1.6 0L39 20.3c.3.4.3.8 0 1.2L24.8 40.3c-.4.6-1.2.6-1.6 0z" fill="#ff6242"/><path id="XMLID_2198_" d="M10.4 23.4L23.2 6.5c.4-.5 1.2-.5 1.6 0l12.8 16.9 1.4-1.9c.3-.4.3-.8 0-1.2L24.8 1.5c-.4-.5-1.2-.5-1.6 0L9 20.3c-.3.4-.3.8 0 1.2l1.4 1.9z" fill="#ff866e"/><path id="XMLID_2197_" d="M23.2 40.3L9 21.5c-.3-.4-.3-.8 0-1.2L23.2 1.5c.4-.5 1.2-.5 1.6 0L39 20.3c.3.4.3.8 0 1.2L24.8 40.3c-.4.6-1.2.6-1.6 0z" fill="none" stroke="#45413c" stroke-linecap="round" stroke-linejoin="round" stroke-miterlimit="10"/></g></g></g></symbol><symbol id="EMOJI-98" viewBox="0 0 48 48"><style/><symbol id="New_Symbol_14" viewBox="-6.5 -6.5 13 13"><path d="M0-6c2.2 0 4.1 1.5 4.7 3.5 0 0 0 0 0 0C6.3-2.5 6.4 0 5 0v1c0 2.8-2.2 5-5 5s-5-2.2-5-5V0c-1.4 0-1.3-2.5.2-2.5 0 0 0 0 0 0C-4.1-4.5-2.2-6 0-6z" fill="#ffd4c3" stroke="#504b46" stroke-linecap="round" stroke-linejoin="round" stroke-miterlimit="10"/><circle cx="-1.6" cy="-.1" r=".1" fill="#ffc258"/><path d="M-1.6.5c-.3 0-.6-.3-.6-.6s.2-.7.6-.7c.3 0 .6.3.6.7s-.3.6-.6.6z" fill="#4f4b45"/><circle cx="1.6" cy="-.1" r=".1" fill="#ffc258"/><path d="M1.6.5C1.3.5 1 .2 1-.1s.3-.6.6-.6.6.3.6.6-.2.6-.6.6z" fill="#4f4b45"/><circle cx="-3" cy="-1.5" r=".5" fill="#fabfa5"/><circle cx="3" cy="-1.5" r=".5" fill="#fabfa5"/><path d="M-1.2-3c.8-.5 1.7-.5 2.5 0" fill="none" stroke="#504b46" stroke-linecap="round" stroke-linejoin="round" stroke-miterlimit="10"/></symbol><g id="Icons"><g id="XMLID_779_"><ellipse id="XMLID_2195_" cx="24" cy="45.4" rx="11.5" ry="1.5" opacity=".15" fill="#45413c"/><g id="XMLID_2189_"><path id="XMLID_2193_" d="M34 14.6c.3-1 .5-2 .5-3.1C34.5 5.7 29.8 1 24 1S13.5 5.8 13.5 11.6c0 1.1.2 2.1.5 3.1-5.3.5-9.5 5-9.5 10.4 0 5.8 4.7 10.5 10.5 10.5 2.4 0 4.7-.8 6.5-2.2.1 1.5-.3 5.3-5.1 5.7-.5 0-.9.5-.9 1 0 .6.4 1 1 1h15c.6 0 1-.4 1-1 0-.5-.4-.9-.9-1-4.7-.4-5.1-4.1-5.1-5.7 1.8 1.4 4 2.2 6.5 2.2 5.8 0 10.5-4.7 10.5-10.5 0-5.5-4.1-10-9.5-10.5z" fill="#525252"/><path id="XMLID_2192_" d="M24 6.1c4.9 0 9.1 3.4 10.2 8 .2-.8.3-1.6.3-2.5 0-5.8-4.7-10.5-10.5-10.5S13.5 5.8 13.5 11.6c0 .9.1 1.7.3 2.5 1.1-4.6 5.3-8 10.2-8z" fill="#656769"/><path id="XMLID_2190_" d="M34 14.6c.3-1 .5-2 .5-3.1C34.5 5.7 29.8 1 24 1S13.5 5.8 13.5 11.6c0 1.1.2 2.1.5 3.1-5.3.5-9.5 5-9.5 10.4 0 5.8 4.7 10.5 10.5 10.5 2.4 0 4.7-.8 6.5-2.2.1 1.5-.3 5.3-5.1 5.7-.5 0-.9.5-.9 1v0c0 .6.4 1 1 1h15c.6 0 1-.4 1-1v0c0-.5-.4-.9-.9-1-4.7-.4-5.1-4.1-5.1-5.7 1.8 1.4 4 2.2 6.5 2.2 5.8 0 10.5-4.7 10.5-10.5 0-5.5-4.1-10-9.5-10.5z" fill="none" stroke="#45413c" stroke-linecap="round" stroke-linejoin="round" stroke-miterlimit="10"/></g></g></g></symbol><symbol id="EMOJI-99" viewBox="0 0 48 48"><style/><symbol id="New_Symbol_14" viewBox="-6.5 -6.5 13 13"><path d="M0-6c2.2 0 4.1 1.5 4.7 3.5 0 0 0 0 0 0C6.3-2.5 6.4 0 5 0v1c0 2.8-2.2 5-5 5s-5-2.2-5-5V0c-1.4 0-1.3-2.5.2-2.5 0 0 0 0 0 0C-4.1-4.5-2.2-6 0-6z" fill="#ffd4c3" stroke="#504b46" stroke-linecap="round" stroke-linejoin="round" stroke-miterlimit="10"/><circle cx="-1.6" cy="-.1" r=".1" fill="#ffc258"/><path d="M-1.6.5c-.3 0-.6-.3-.6-.6s.2-.7.6-.7c.3 0 .6.3.6.7s-.3.6-.6.6z" fill="#4f4b45"/><circle cx="1.6" cy="-.1" r=".1" fill="#ffc258"/><path d="M1.6.5C1.3.5 1 .2 1-.1s.3-.6.6-.6.6.3.6.6-.2.6-.6.6z" fill="#4f4b45"/><circle cx="-3" cy="-1.5" r=".5" fill="#fabfa5"/><circle cx="3" cy="-1.5" r=".5" fill="#fabfa5"/><path d="M-1.2-3c.8-.5 1.7-.5 2.5 0" fill="none" stroke="#504b46" stroke-linecap="round" stroke-linejoin="round" stroke-miterlimit="10"/></symbol><g id="Icons"><g id="XMLID_782_"><path id="XMLID_1711_" d="M40.8 28.4C43.5 18 38.1 7 28.2 2.7c-2.6-1.1-5.4-1.7-8-1.8-.9 0-1.4 1-.8 1.7 4.5 4.7 6.8 11 5.8 17.8-.9 3.6-6.2 2.7-8 4.4-1.9 1.8 4.2 5.1 4.2 5.1-3.3 4.7-8.5 8.2-14.1 9.4-.9.2-1.1 1.3-.3 1.8 1.7 1.2 3.6 2.1 5.6 2.8 12 3.9 24.9-3.1 28.2-15.5z" fill="#ffe500"/><ellipse id="XMLID_1717_" cx="24" cy="45.6" rx="11.5" ry="1.5" opacity=".15" fill="#45413c"/><g id="XMLID_1712_" fill="#fff48c"><path id="XMLID_1716_" d="M18.1 27.6c2.3-.7 5.7-.8 6.4-3.6.1-.9.2-1.7.2-2.6-1.6 2.4-5.9 1.8-7.6 3.4-.8.8-.1 1.9 1 2.8z"/><path id="XMLID_1854_" d="M28.2 2.7c-2.6-1.1-5.4-1.7-8-1.8-.9 0-1.4 1-.8 1.7.6.7 1.2 1.3 1.7 2 9.4 1 17.2 8 19.2 17.4.5 2.3.6 4.6.3 6.8 0-.1.1-.3.1-.4C43.5 18 38.1 7 28.2 2.7z"/><path id="XMLID_1855_" d="M7 41.1c.6.4 1.3.8 2 1.2 3.4-1.1 8.1-5.3 10.4-7.4.7-.6.6-1.7-.2-2.2-3.2 3.3-7.3 5.8-11.8 6.7-.9 0-1.2 1.2-.4 1.7z"/></g><path id="XMLID_1714_" d="M40.8 28.4C43.5 18 38.1 7 28.2 2.7c-2.6-1.1-5.4-1.7-8-1.8-.9 0-1.4 1-.8 1.7 4.5 4.7 6.8 11 5.8 17.8-.9 3.6-6.2 2.7-8 4.4-1.9 1.8 4.2 5.1 4.2 5.1h0c-3.3 4.7-8.5 8.2-14.1 9.4-.9.2-1.1 1.3-.3 1.8 1.7 1.2 3.6 2.1 5.6 2.8 12 3.9 24.9-3.1 28.2-15.5z" fill="none" stroke="#45413c" stroke-linecap="round" stroke-linejoin="round" stroke-miterlimit="10"/><path id="XMLID_1710_" d="M21.4 29.9c1.9 1.1 3.4 1.4 3.8-.4" fill="none" stroke="#45413c" stroke-linecap="round" stroke-linejoin="round" stroke-miterlimit="10"/><circle id="XMLID_1672_" transform="rotate(-71.893 30.32 23.481)" cx="30.3" cy="23.5" fill="#45413c" stroke="#45413c" stroke-miterlimit="10" r="1.1"/><circle id="XMLID_1671_" transform="rotate(-71.899 32.132 33.616)" cx="32.1" cy="33.6" fill="#fffacf" r="1.3"/><path id="XMLID_1670_" d="M17.9 33.9s3.4 3.6 8.3 2.3" fill="none" stroke="#45413c" stroke-linecap="round" stroke-linejoin="round" stroke-miterlimit="10"/><path id="XMLID_1669_" d="M26.9 33.9s-1 1-.7 2.2c.4 1.5 1.9 1.7 1.9 1.7" fill="none" stroke="#45413c" stroke-linecap="round" stroke-linejoin="round" stroke-miterlimit="10"/></g></g></symbol></svg>
