<?xml version="1.0" encoding="UTF-8"?><!DOCTYPE svg PUBLIC "-//W3C//DTD SVG 1.1//EN" "http://www.w3.org/Graphics/SVG/1.1/DTD/svg11.dtd"><svg xmlns="http://www.w3.org/2000/svg" xmlns:xlink="http://www.w3.org/1999/xlink"><defs/><symbol id="001-alarm-bell" viewBox="0 0 512 512">
<path style="fill:#FFDA45;" d="M202.031,402.803v55.229c0,29.806,24.162,53.968,53.968,53.968l0,0
	c29.806,0,53.968-24.162,53.968-53.968v-55.229H202.031z"/>
<path style="fill:#FFB13B;" d="M255.999,402.803V512c29.806,0,53.968-24.162,53.968-53.968v-55.229H255.999z"/>
<path style="fill:#FFE733;" d="M481.257,362.293L481.257,362.293c-40.402-29.716-64.259-76.878-64.259-127.031v-74.263
	C416.998,72.082,344.916,0,255.999,0l0,0C167.082,0,95,72.082,95,160.999v74.263c0,50.153-23.857,97.315-64.259,127.031l0,0l0,0
	v81.021h450.515L481.257,362.293L481.257,362.293z"/>
<path style="fill:#FFDA45;" d="M481.257,362.292c-40.402-29.716-64.259-76.878-64.259-127.031v-74.263
	C416.998,72.082,344.916,0,255.999,0v443.313h225.258V362.292L481.257,362.292z"/>
<rect x="30.741" y="362.29" style="fill:#FFB13B;" width="450.51" height="81.02"/>
<rect x="255.999" y="362.29" style="fill:#FF9500;" width="225.26" height="81.02"/>
<g>
</g>
<g>
</g>
<g>
</g>
<g>
</g>
<g>
</g>
<g>
</g>
<g>
</g>
<g>
</g>
<g>
</g>
<g>
</g>
<g>
</g>
<g>
</g>
<g>
</g>
<g>
</g>
<g>
</g>
</symbol><symbol id="002-transfer" viewBox="0 0 512 512">
<path style="fill:#7D8AFF;" d="M0,306.542V147C0,89.103,47.103,42,105,42h280V0.787L511.213,127L385,253.213V212H127.111
	c-40.127,0-77.372,19.933-99.63,53.32L0,306.542z"/>
<path style="fill:#FFDC40;" d="M127,511.213L0.787,385L127,258.787V300h257.889c40.127,0,77.372-19.933,99.63-53.32L512,205.458V365
	c0,57.897-47.103,105-105,105H127V511.213z"/>
<path style="fill:#FFAB15;" d="M484.519,246.68c-22.258,33.387-59.503,53.32-99.63,53.32H256v170h151c57.897,0,105-47.103,105-105
	V205.458L484.519,246.68z"/>
<polygon style="fill:#6E76E5;" points="511.213,127 385,0.787 385,42 256,42 256,212 385,212 385,253.213 "/>
<g>
</g>
<g>
</g>
<g>
</g>
<g>
</g>
<g>
</g>
<g>
</g>
<g>
</g>
<g>
</g>
<g>
</g>
<g>
</g>
<g>
</g>
<g>
</g>
<g>
</g>
<g>
</g>
<g>
</g>
</symbol><symbol id="003-data" viewBox="0 0 464.00008 464"><g fill="#5eac24"><path d="m424 448h-56c-13.253906 0-24-10.746094-24-24v-48c0-4.417969-3.582031-8-8-8h-48v-16h48c13.253906 0 24 10.746094 24 24v48c0 4.417969 3.582031 8 8 8h56zm0 0"/><path d="m336 144h-48v-16h48c4.417969 0 8-3.582031 8-8v-72c0-13.253906 10.746094-24 24-24h56v16h-56c-4.417969 0-8 3.582031-8 8v72c0 13.253906-10.746094 24-24 24zm0 0"/><path d="m288 224h136v16h-136zm0 0"/></g><path d="m144 232c79.527344 0 144-25.070312 144-56v-120c0 30.929688-64.472656 56-144 56s-144-25.070312-144-56v120c0 30.929688 64.472656 56 144 56zm0 0" fill="#9bc9ff"/><path d="m144 232c-79.527344 0-144-25.070312-144-56v112c0 30.929688 64.472656 56 144 56s144-25.070312 144-56v-112c0 30.929688-64.472656 56-144 56zm0 0" fill="#57a4ff"/><path d="m144 344c-79.527344 0-144-25.070312-144-56v120c0 30.929688 64.472656 56 144 56s144-25.070312 144-56v-120c0 30.929688-64.472656 56-144 56zm0 0" fill="#2488ff"/><path d="m288 56c0-30.929688-64.472656-56-144-56s-144 25.070312-144 56 64.472656 56 144 56 144-25.070312 144-56zm0 0" fill="#bddbff"/><path d="m288 56c0 30.960938-64.480469 56-144 56s-144-25.039062-144-56c-.0078125-2.738281.507812-5.453125 1.519531-8 9.839844 27.121094 69.921875 48 142.480469 48s132.640625-20.878906 142.480469-48c1.011719 2.546875 1.527343 5.261719 1.519531 8zm0 0" fill="#57a4ff"/><path d="m464 232c0 13.253906-10.746094 24-24 24s-24-10.746094-24-24 10.746094-24 24-24 24 10.746094 24 24zm0 0" fill="#b2fa09"/><path d="m464 440c0 13.253906-10.746094 24-24 24s-24-10.746094-24-24 10.746094-24 24-24 24 10.746094 24 24zm0 0" fill="#b2fa09"/><path d="m464 32c0 13.253906-10.746094 24-24 24s-24-10.746094-24-24 10.746094-24 24-24 24 10.746094 24 24zm0 0" fill="#b2fa09"/><path d="m288 160v16c0 30.960938-64.480469 56-144 56s-144-25.039062-144-56v-16c0 30.960938 64.480469 56 144 56s144-25.039062 144-56zm0 0" fill="#2488ff"/><path d="m288 272v16c0 30.960938-64.480469 56-144 56s-144-25.039062-144-56v-16c0 30.960938 64.480469 56 144 56s144-25.039062 144-56zm0 0" fill="#006df0"/><path d="m288 392v16c0 30.960938-64.480469 56-144 56s-144-25.039062-144-56v-16c0 30.960938 64.480469 56 144 56s144-25.039062 144-56zm0 0" fill="#006df0"/><path d="m432 24h16v16h-16zm0 0" fill="#ed1c24"/><path d="m432 224h16v16h-16zm0 0" fill="#ed1c24"/><path d="m432 432h16v16h-16zm0 0" fill="#ed1c24"/></symbol><symbol id="004-engineering" viewBox="0 0 64 64"><path d="m36.787 44.422c-.163.998-.422 1.962-.771 2.884l3.131 2.837c-.439.924-.939 1.812-1.516 2.646l-4.02-1.296c-.634.775-1.344 1.484-2.119 2.118l1.296 4.02c-.834.577-1.722 1.076-2.646 1.516l-2.837-3.131c-.922.349-1.885.608-2.884.771l-.893 4.136c-.505.04-1.012.077-1.528.077s-1.023-.037-1.529-.077l-.893-4.136c-.998-.163-1.962-.422-2.884-.771l-2.837 3.131c-.924-.439-1.812-.939-2.646-1.516l1.296-4.02c-.775-.634-1.484-1.344-2.118-2.118l-4.02 1.296c-.577-.834-1.076-1.722-1.516-2.646l3.131-2.837c-.349-.922-.608-1.885-.771-2.884l-4.136-.893c-.04-.506-.077-1.013-.077-1.529s.037-1.023.077-1.529l4.136-.893c.163-.998.422-1.962.771-2.884l-3.131-2.837c.439-.924.939-1.812 1.516-2.646l4.02 1.296c.634-.775 1.344-1.484 2.119-2.118l-1.296-4.02c.834-.577 1.722-1.076 2.646-1.516l2.837 3.131c.922-.349 1.885-.608 2.884-.771l.893-4.136c.505-.04 1.012-.077 1.528-.077s1.023.037 1.529.077l.893 4.136c.998.163 1.962.422 2.884.771l2.837-3.131c.924.439 1.812.939 2.646 1.516l-1.296 4.02c.775.634 1.484 1.344 2.118 2.119l4.02-1.296c.577.834 1.076 1.722 1.516 2.646l-3.131 2.837c.349.922.608 1.885.771 2.884l4.136.893c.04.505.077 1.012.077 1.528s-.037 1.023-.077 1.529zm-14.787-12.422c-5.523 0-10 4.477-10 10s4.477 10 10 10 10-4.477 10-10-4.477-10-10-10z" fill="#454a6d"/><path d="m50.659 16.305c-.156.517-.36 1.013-.611 1.48l1.579 3.026c-.533.674-1.141 1.282-1.815 1.815l-3.026-1.579c-.467.252-.963.456-1.48.611l-1.024 3.26c-.422.05-.848.082-1.282.082s-.86-.032-1.281-.081l-1.024-3.26c-.517-.155-1.013-.36-1.48-.611l-3.026 1.579c-.674-.533-1.282-1.141-1.815-1.815l1.579-3.026c-.252-.467-.456-.963-.611-1.48l-3.26-1.024c-.05-.422-.082-.848-.082-1.282s.032-.86.081-1.281l3.26-1.024c.155-.517.36-1.013.611-1.48l-1.579-3.026c.533-.674 1.141-1.282 1.815-1.815l3.026 1.579c.467-.252.963-.456 1.48-.611l1.024-3.26c.422-.05.848-.082 1.282-.082s.86.032 1.281.081l1.024 3.26c.517.155 1.013.36 1.48.611l3.026-1.579c.674.533 1.282 1.141 1.815 1.815l-1.579 3.026c.252.467.456.963.611 1.48l3.26 1.024c.05.422.082.848.082 1.282s-.032.86-.081 1.281zm-7.659-6.305c-2.209 0-4 1.791-4 4s1.791 4 4 4 4-1.791 4-4-1.791-4-4-4z" fill="#e89d43"/><path d="m58.739 38.871c-.154.555-.371 1.081-.649 1.572l.995 2.094c-.452.577-.971 1.096-1.548 1.548l-2.094-.995c-.49.278-1.017.495-1.572.649l-.778 2.188c-.359.044-.722.073-1.093.073s-.734-.029-1.093-.073l-.778-2.188c-.555-.154-1.081-.371-1.572-.649l-2.094.995c-.577-.452-1.096-.971-1.548-1.548l.995-2.094c-.278-.49-.495-1.017-.649-1.571l-2.188-.778c-.044-.36-.073-.723-.073-1.094s.029-.734.073-1.093l2.188-.778c.154-.555.371-1.081.649-1.571l-.995-2.094c.452-.577.971-1.096 1.548-1.548l2.094.995c.49-.278 1.017-.495 1.572-.649l.778-2.188c.359-.045.722-.074 1.093-.074s.734.029 1.093.073l.778 2.188c.555.154 1.081.371 1.572.649l2.094-.995c.577.452 1.096.971 1.548 1.548l-.995 2.094c.278.49.495 1.017.649 1.572l2.188.778c.044.359.073.722.073 1.093s-.029.734-.073 1.093zm-6.739-4.871c-1.657 0-3 1.343-3 3s1.343 3 3 3 3-1.343 3-3-1.343-3-3-3z" fill="#4ac3ed"/><g fill="#454a6d"><path d="m61.196 5.02-5.981-1.196-1.196 5.98 1.961.393.539-2.692c.969 2.016 1.481 4.238 1.481 6.495 0 3.448-1.138 6.69-3.29 9.375l1.561 1.251c2.405-3.001 3.729-6.774 3.729-10.626 0-2.619-.605-5.201-1.756-7.531l2.56.512z"/><path d="m23.707 13.293-1.414 1.414 1.359 1.359c-.55-.035-1.101-.066-1.652-.066-7.736 0-15.018 3.411-19.978 9.359l1.536 1.281c4.579-5.491 11.3-8.64 18.442-8.64.509 0 1.017.029 1.525.061l-1.232 1.232 1.414 1.414 3.707-3.707z"/></g></symbol><symbol id="005-process" viewBox="0 0 512 512"><g><g fill="#99e6fc"><path d="m411.186 314.512h15v32.946h-15z"/><path d="m411.186 412.11h15v32.946h-15z"/></g><g fill="#99e6fc"><path d="m418.686 135.959c-4.143 0-7.5 3.358-7.5 7.5v12c0 4.142 3.357 7.5 7.5 7.5s7.5-3.358 7.5-7.5v-12c0-4.142-3.358-7.5-7.5-7.5z"/><path d="m388.358 97.663h-14.867c.209 2.69.326 5.394.326 8.085 0 2.301-.084 4.612-.237 6.915h14.778c4.143 0 7.5-3.358 7.5-7.5s-3.357-7.5-7.5-7.5z"/><path d="m418.527 125.967c.345 0 .693-.024 1.044-.073 4.103-.571 6.965-4.359 6.395-8.462-.833-5.986-3.939-11.319-8.746-15.017-3.285-2.526-7.993-1.911-10.518 1.372s-1.912 7.992 1.371 10.518c1.67 1.284 2.748 3.129 3.035 5.195.523 3.752 3.736 6.467 7.419 6.467z"/><path d="m418.686 209.959c-4.143 0-7.5 3.358-7.5 7.5v12c0 4.142 3.357 7.5 7.5 7.5s7.5-3.358 7.5-7.5v-12c0-4.142-3.358-7.5-7.5-7.5z"/><path d="m418.686 172.959c-4.143 0-7.5 3.358-7.5 7.5v12c0 4.142 3.357 7.5 7.5 7.5s7.5-3.358 7.5-7.5v-12c0-4.142-3.358-7.5-7.5-7.5z"/><path d="m184.32 469.883h-12c-4.142 0-7.5 3.358-7.5 7.5s3.358 7.5 7.5 7.5h12c4.142 0 7.5-3.358 7.5-7.5s-3.358-7.5-7.5-7.5z"/><path d="m147.32 469.883h-.478c-2.006 0-3.921-.749-5.393-2.107-3.042-2.81-7.788-2.621-10.598.423-2.81 3.043-2.62 7.788.423 10.598 4.251 3.924 9.78 6.086 15.568 6.086h.478c4.142 0 7.5-3.358 7.5-7.5s-3.358-7.5-7.5-7.5z"/><path d="m138.889 449.691v-12c0-4.142-3.358-7.5-7.5-7.5s-7.5 3.358-7.5 7.5v12c0 4.142 3.358 7.5 7.5 7.5s7.5-3.358 7.5-7.5z"/><path d="m131.389 420.191c4.142 0 7.5-3.358 7.5-7.5v-12c0-4.142-3.358-7.5-7.5-7.5s-7.5 3.358-7.5 7.5v12c0 4.142 3.358 7.5 7.5 7.5z"/><path d="m258.32 469.883h-12c-4.142 0-7.5 3.358-7.5 7.5s3.358 7.5 7.5 7.5h12c4.143 0 7.5-3.358 7.5-7.5s-3.357-7.5-7.5-7.5z"/><path d="m326.372 469.883h-6.052c-4.143 0-7.5 3.358-7.5 7.5s3.357 7.5 7.5 7.5h6.052z"/><path d="m295.32 469.883h-12c-4.143 0-7.5 3.358-7.5 7.5s3.357 7.5 7.5 7.5h12c4.143 0 7.5-3.358 7.5-7.5s-3.357-7.5-7.5-7.5z"/><path d="m221.32 469.883h-12c-4.142 0-7.5 3.358-7.5 7.5s3.358 7.5 7.5 7.5h12c4.142 0 7.5-3.358 7.5-7.5s-3.358-7.5-7.5-7.5z"/></g><g><path d="m166.337 377.392c0-32.811 26.693-59.503 59.503-59.503.067 0 .132.005.198.005v-143.955l-12.895 12.895c-.938.938-2.183 1.454-3.508 1.454-1.096 0-2.129-.354-2.987-1.026-6.625-5.187-12.615-11.176-17.802-17.802-1.519-1.94-1.334-4.732.428-6.495l15.017-15.017c2.154-2.153 2.637-5.436 1.202-8.168-2.049-3.901-3.752-8.017-5.063-12.231-.917-2.945-3.578-4.923-6.624-4.923h-21.246c-2.492 0-4.596-1.843-4.894-4.287-.506-4.159-.763-8.395-.763-12.591 0-.195.008-.39.009-.585h-116.766c-2.732 0-5.352 1.085-7.284 3.017l-39.845 39.845c-1.932 1.932-3.017 4.552-3.017 7.284v222.66c0 5.69 4.612 10.302 10.302 10.302h157.05c-.656-3.53-1.015-7.162-1.015-10.879z" fill="#fef1da"/><g><path d="m42.753 377.969v-222.66c0-2.732 1.085-5.353 3.017-7.285l39.845-39.845c1.932-1.932 4.552-3.017 7.284-3.017h-42.753c-2.732 0-5.352 1.085-7.284 3.017l-39.845 39.846c-1.932 1.932-3.017 4.552-3.017 7.284v222.66c0 5.69 4.612 10.302 10.302 10.302h42.753c-5.69 0-10.302-4.612-10.302-10.302z" fill="#fae2c0"/></g><g><g><path d="m166.598 184.945h-107.157c-4.142 0-7.5-3.358-7.5-7.5s3.358-7.5 7.5-7.5h107.157c4.142 0 7.5 3.358 7.5 7.5s-3.358 7.5-7.5 7.5z" fill="#d8aa5e"/></g><g><path d="m166.598 222.378h-107.157c-4.142 0-7.5-3.358-7.5-7.5s3.358-7.5 7.5-7.5h107.157c4.142 0 7.5 3.358 7.5 7.5s-3.358 7.5-7.5 7.5z" fill="#d8aa5e"/></g><g><path d="m166.598 259.645h-107.157c-4.142 0-7.5-3.358-7.5-7.5s3.358-7.5 7.5-7.5h107.157c4.142 0 7.5 3.358 7.5 7.5s-3.358 7.5-7.5 7.5z" fill="#d8aa5e"/></g><g><path d="m166.598 297.246h-107.157c-4.142 0-7.5-3.358-7.5-7.5s3.358-7.5 7.5-7.5h107.157c4.142 0 7.5 3.358 7.5 7.5s-3.358 7.5-7.5 7.5z" fill="#d8aa5e"/></g><g><path d="m107.477 334.68h-48.036c-4.142 0-7.5-3.358-7.5-7.5s3.358-7.5 7.5-7.5h48.036c4.142 0 7.5 3.358 7.5 7.5s-3.358 7.5-7.5 7.5z" fill="#d8aa5e"/></g></g></g><g><g><circle cx="225.84" cy="377.392" fill="#05e39c" r="60.503"/></g><g><path d="m199.895 377.392c0-27.409 18.231-50.548 43.224-57.985-5.477-1.63-11.273-2.518-17.279-2.518-33.415 0-60.503 27.088-60.503 60.503s27.088 60.503 60.503 60.503c6.006 0 11.802-.888 17.279-2.518-24.993-7.437-43.224-30.576-43.224-57.985z" fill="#0ed290"/></g><g><path d="m221.997 402c-1.919 0-3.839-.732-5.303-2.197l-23.502-23.502c-2.929-2.929-2.929-7.678 0-10.606 2.929-2.929 7.678-2.929 10.606 0l18.199 18.199 25.886-25.886c2.929-2.929 7.677-2.93 10.606 0 2.929 2.929 2.929 7.678 0 10.606l-31.189 31.19c-1.465 1.464-3.384 2.196-5.303 2.196z" fill="#fff"/></g></g><g><g><path d="m337.136 64.256 15.017-15.017c2.108-2.108 2.345-5.471.508-7.818-5.24-6.694-11.278-12.733-17.973-17.973-2.347-1.837-5.71-1.6-7.818.508l-15.017 15.017c-1.85 1.85-4.679 2.24-6.996 1.024-3.938-2.068-8.084-3.791-12.399-5.133-2.497-.776-4.22-3.054-4.22-5.668v-21.248c0-2.98-2.207-5.526-5.165-5.886-4.167-.507-8.409-.77-12.712-.77s-8.546.263-12.712.77c-2.958.36-5.166 2.906-5.166 5.886v21.247c0 2.615-1.723 4.892-4.22 5.668-4.315 1.342-8.462 3.065-12.399 5.133-2.317 1.217-5.146.827-6.996-1.024l-15.017-15.017c-2.108-2.108-5.471-2.345-7.818-.508-6.694 5.24-12.733 11.278-17.973 17.973-1.837 2.347-1.6 5.71.508 7.818l15.017 15.017c1.85 1.85 2.24 4.679 1.024 6.996-2.068 3.938-3.791 8.084-5.133 12.399-.776 2.497-3.054 4.22-5.668 4.22h-21.248c-2.98 0-5.526 2.207-5.886 5.165-.507 4.167-.77 8.409-.77 12.712 0 4.304.263 8.546.77 12.712.36 2.958 2.906 5.165 5.886 5.165h21.247c2.615 0 4.892 1.723 5.668 4.22 1.342 4.315 3.065 8.462 5.133 12.399 1.217 2.317.827 5.146-1.024 6.996l-15.017 15.017c-2.108 2.108-2.345 5.471-.508 7.818 5.24 6.694 11.278 12.733 17.973 17.973 2.347 1.837 5.71 1.6 7.818-.508l15.017-15.017c1.85-1.85 4.679-2.24 6.996-1.024 3.938 2.068 8.084 3.791 12.399 5.133 2.497.776 4.22 3.054 4.22 5.668v21.247c0 2.98 2.207 5.526 5.166 5.886 4.167.507 8.409.77 12.712.77s8.546-.263 12.712-.77c2.958-.36 5.165-2.906 5.165-5.886v-21.247c0-2.615 1.723-4.892 4.22-5.668 4.315-1.342 8.462-3.065 12.399-5.133 2.317-1.217 5.146-.827 6.996 1.024l15.017 15.017c2.108 2.108 5.471 2.345 7.818.508 6.694-5.24 12.733-11.278 17.973-17.973 1.837-2.347 1.6-5.71-.508-7.818l-15.017-15.017c-1.85-1.85-2.24-4.679-1.024-6.996 2.068-3.938 3.791-8.084 5.133-12.399.776-2.497 3.054-4.22 5.668-4.22h21.247c2.98 0 5.526-2.207 5.886-5.165.507-4.167.77-8.409.77-12.712 0-4.304-.263-8.546-.77-12.712-.36-2.958-2.906-5.165-5.886-5.165h-21.247c-2.615 0-4.892-1.723-5.668-4.22-1.342-4.315-3.065-8.462-5.133-12.399-1.215-2.316-.825-5.145 1.025-6.995z" fill="#7ca1b1"/></g><g><path d="m253.428 157.368c-21.692-7.134-37.403-27.571-37.403-51.62s15.711-44.486 37.403-51.62c9.212-10.762 21.249-19.035 34.964-23.67-.091-.41-.154-.829-.154-1.263v-21.247c0-2.98-2.207-5.526-5.165-5.886-4.167-.507-8.409-.77-12.712-.77s-8.546.263-12.712.77c-2.958.36-5.166 2.906-5.166 5.886v21.247c0 2.615-1.723 4.892-4.22 5.668-4.315 1.342-8.462 3.065-12.399 5.133-2.317 1.217-5.146.827-6.996-1.024l-15.017-15.017c-2.108-2.108-5.471-2.345-7.818-.508-6.694 5.24-12.733 11.278-17.973 17.973-1.837 2.347-1.6 5.71.508 7.818l15.017 15.017c1.85 1.85 2.24 4.679 1.024 6.996-2.068 3.938-3.791 8.084-5.133 12.399-.776 2.497-3.054 4.22-5.668 4.22h-21.248c-2.98 0-5.526 2.207-5.886 5.165-.507 4.167-.77 8.409-.77 12.712s.263 8.546.77 12.712c.36 2.958 2.906 5.165 5.886 5.165h21.247c2.615 0 4.892 1.723 5.668 4.22 1.342 4.315 3.065 8.462 5.133 12.399 1.217 2.317.827 5.146-1.024 6.996l-15.017 15.017c-2.108 2.108-2.345 5.471-.508 7.818 5.24 6.694 11.278 12.733 17.973 17.973 2.347 1.837 5.71 1.6 7.818-.508l15.017-15.017c1.85-1.85 4.679-2.24 6.996-1.024 3.938 2.068 8.084 3.791 12.399 5.133 2.497.776 4.22 3.054 4.22 5.668v21.247c0 2.98 2.207 5.526 5.166 5.886 4.167.507 8.409.77 12.712.77s8.546-.263 12.712-.77c2.958-.36 5.165-2.906 5.165-5.886v-21.247c0-.434.064-.853.154-1.263-13.713-4.633-25.751-12.906-34.963-23.668z" fill="#678d98"/></g><g><circle cx="270.36" cy="105.748" fill="#3e5959" r="46.835"/></g><g><path d="m249.819 105.748c0-21.3 14.224-39.267 33.688-44.951-4.172-1.218-8.581-1.884-13.147-1.884-25.867 0-46.835 20.969-46.835 46.835s20.969 46.835 46.835 46.835c4.566 0 8.975-.666 13.147-1.884-19.464-5.683-33.688-23.651-33.688-44.951z" fill="#384949"/></g><g><path d="m270.36 160.083c-29.96 0-54.335-24.375-54.335-54.335s24.375-54.335 54.335-54.335 54.335 24.375 54.335 54.335-24.375 54.335-54.335 54.335zm0-93.67c-21.689 0-39.335 17.646-39.335 39.335s17.646 39.335 39.335 39.335 39.335-17.646 39.335-39.335-17.645-39.335-39.335-39.335z" fill="#8ebac5"/></g><g><circle cx="270.36" cy="105.748" fill="#fff" r="16.261"/></g></g><g><path d="m506.849 315.511h-176.326c-2.845 0-5.151-2.306-5.151-5.151v-56.35c0-2.845 2.306-5.151 5.151-5.151h176.326c2.845 0 5.151 2.306 5.151 5.151v56.351c0 2.844-2.306 5.15-5.151 5.15z" fill="#01d0fb"/></g><g><path d="m360.048 310.361v-56.351c0-2.845 2.306-5.151 5.151-5.151h-34.676c-2.845 0-5.151 2.306-5.151 5.151v56.351c0 2.845 2.306 5.151 5.151 5.151h34.676c-2.845 0-5.151-2.307-5.151-5.151z" fill="#01c0fa"/></g><g><path d="m475.341 289.685h-113.31c-4.143 0-7.5-3.358-7.5-7.5s3.357-7.5 7.5-7.5h113.31c4.143 0 7.5 3.358 7.5 7.5s-3.358 7.5-7.5 7.5z" fill="#99e6fc"/></g><g><path d="m506.849 413.11h-176.326c-2.845 0-5.151-2.306-5.151-5.151v-56.351c0-2.845 2.306-5.151 5.151-5.151h176.326c2.845 0 5.151 2.306 5.151 5.151v56.351c0 2.845-2.306 5.151-5.151 5.151z" fill="#fed402"/></g><g><path d="m360.048 407.959v-56.351c0-2.845 2.306-5.151 5.151-5.151h-34.676c-2.845 0-5.151 2.306-5.151 5.151v56.351c0 2.845 2.306 5.151 5.151 5.151h34.676c-2.845 0-5.151-2.306-5.151-5.151z" fill="#fac600"/></g><g><path d="m475.341 387.284h-113.31c-4.143 0-7.5-3.358-7.5-7.5s3.357-7.5 7.5-7.5h113.31c4.143 0 7.5 3.358 7.5 7.5s-3.358 7.5-7.5 7.5z" fill="#c99c56"/></g><g><path d="m506.849 510.709h-176.326c-2.845 0-5.151-2.306-5.151-5.151v-56.351c0-2.845 2.306-5.151 5.151-5.151h176.326c2.845 0 5.151 2.306 5.151 5.151v56.351c0 2.845-2.306 5.151-5.151 5.151z" fill="#fd5426"/></g><g><path d="m360.048 505.558v-56.351c0-2.845 2.306-5.151 5.151-5.151h-34.676c-2.845 0-5.151 2.306-5.151 5.151v56.351c0 2.845 2.306 5.151 5.151 5.151h34.676c-2.845 0-5.151-2.306-5.151-5.151z" fill="#ef4424"/></g><g><path d="m475.341 484.883h-113.31c-4.143 0-7.5-3.358-7.5-7.5s3.357-7.5 7.5-7.5h113.31c4.143 0 7.5 3.358 7.5 7.5s-3.358 7.5-7.5 7.5z" fill="#d73d24"/></g></g></symbol><symbol id="006-blog" viewBox="0 0 510 510"><g id="XMLID_3724_"><path id="XMLID_3575_" d="m480 82.5h-85l-140 60v240l112.5 15 112.5-15c0-16.651 0-283.349 0-300z" fill="#444"/><path id="XMLID_3718_" d="m30 142.318v240.182l112.5 15 112.5-15v-240l-112.5-15z" fill="#5a5a5a"/><path id="XMLID_3723_" d="m60 382.5 97.5 15 97.5-15 15-135-15-105-105-15-90 15z" fill="#f2f4f9"/><path id="XMLID_3562_" d="m255 382.5 97.5 15 97.5-15v-270h-55l-140 30z" fill="#dbf0f9"/><g id="XMLID_3533_"><g id="XMLID_3534_"><path id="XMLID_3663_" d="m90 97.5-7-22.5 7-22.5h45l7 22.5-7 22.5-23 10.667z" fill="#ffda2d"/><path id="XMLID_3662_" d="m135 97.5 7 22.5-7 22.5h-45l-9-22.5 9-22.5z" fill="#fdbf00"/><path id="XMLID_3614_" d="m33.5 52.5h56.5v45l-45 10.667-45-10.667c0-4.021 0-7.478 0-11.5 0-18.501 14.998-33.5 33.5-33.5z" fill="#ff641a"/><path id="XMLID_3607_" d="m90 142.5h-56.5s-33.5-14.998-33.5-33.5c0-4.021 0-7.478 0-11.5h90z" fill="#f03800"/><path id="XMLID_3600_" d="m332.148 97.5-71.449 10.667-95.699-10.667-6.667-22.5 6.667-22.5h189.937z" fill="#ffda2d"/><path id="XMLID_3599_" d="m332.148 97.5 22.789 45h-189.937l-6.667-22.5 6.667-22.5z" fill="#fdbf00"/><path id="XMLID_3596_" d="m165 97.5v45h-30v-45z" fill="#ff9100"/><path id="XMLID_3577_" d="m135 97.5v-45h30v45c-10.492 0-30 0-30 0z" fill="#fdbf00"/><path id="XMLID_3576_" d="m354.937 52.5h.031.032c16.155 12.117 50.589 37.941 60 45l-47.083 6.167-35.769-6.167c0-19.619 9.447-36.271 22.789-45z" fill="#fcc"/><path id="XMLID_3558_" d="m332.148 97.5h82.852c-16.155 12.117-60 45-60 45h-.032-.031s-22.789-25.389-22.789-45z" fill="#ffb3b3"/></g></g><g fill="#249ec5"><path id="XMLID_3720_" d="m255 307.5h165v30h-165z"/><path id="XMLID_3719_" d="m255 247.5h165v30h-165z"/><path id="XMLID_3640_" d="m255 187.5h75v30h-75z"/></g><g id="XMLID_3727_"><g><path id="XMLID_304_" d="m90 307.5h120v30h-120z" fill="#ffda2d"/></g></g><g id="XMLID_3726_"><path id="XMLID_3740_" d="m90 247.5h120v30h-120z" fill="#2ee66b"/></g><g id="XMLID_3725_"><g><path id="XMLID_303_" d="m90 187.5h120v30h-120z" fill="#ff641a"/></g></g><path id="XMLID_3722_" d="m0 382.5s33.644 75 75 75h180l15-37.5-15-37.5z" fill="#444"/><path id="XMLID_3674_" d="m255 382.5v75h180c41.354 0 75-33.644 75-75-7.193 0-255 0-255 0z" fill="#323233"/></g></symbol><symbol id="007-network" viewBox="0 0 53 53">
<rect x="27" y="28" style="fill:#424A60;" width="2" height="18"/>
<rect x="37.5" y="2.893" transform="matrix(0.7071 0.7071 -0.7071 0.7071 20.8223 -23.2696)" style="fill:#424A60;" width="2" height="21.213"/>
<rect x="15" y="21.858" transform="matrix(0.7071 0.7071 -0.7071 0.7071 30.1421 -0.7696)" style="fill:#424A60;" width="2" height="28.284"/>
<rect x="10.722" y="13.5" transform="matrix(0.7071 0.7071 -0.7071 0.7071 15.6716 -8.8345)" style="fill:#424A60;" width="15.556" height="2"/>
<rect x="26.893" y="32.5" transform="matrix(0.7071 0.7071 -0.7071 0.7071 34.6716 -16.7046)" style="fill:#424A60;" width="21.213" height="2"/>
<circle style="fill:#43B05C;" cx="48" cy="5" r="5"/>
<circle style="fill:#7383BF;" cx="28" cy="48" r="5"/>
<circle style="fill:#57D8AB;" cx="5" cy="46" r="5"/>
<circle style="fill:#D75A4A;" cx="12" cy="8" r="3"/>
<circle style="fill:#EBBA16;" cx="44" cy="40" r="3"/>
<circle style="fill:#4B6DAA;" cx="28" cy="24" r="7"/>
<g>
</g>
<g>
</g>
<g>
</g>
<g>
</g>
<g>
</g>
<g>
</g>
<g>
</g>
<g>
</g>
<g>
</g>
<g>
</g>
<g>
</g>
<g>
</g>
<g>
</g>
<g>
</g>
<g>
</g>
</symbol><symbol id="008-setting" viewBox="0 0 512 512"><g><path d="m20.92 140.3h466.33v253.04h-466.33z" fill="#f0f7ff"/><path d="m254.08 140.3h233.17v253.04h-233.17z" fill="#dfe7f4"/><g><g><path d="m301 423.41v63.59c0 8.28-6.72 15-15 15h-60c-8.28 0-15-6.72-15-15v-63.59c0-8.29 6.72-15 15-15h60c8.28 0 15 6.71 15 15z" fill="#4793ff"/></g></g><path d="m497 124.43h-482c-8.28 0-15 6.72-15 15v233.98 60c0 8.28 6.72 15 15 15h482c8.28 0 15-6.72 15-15v-60-233.98c0-8.28-6.72-15-15-15zm-467 248.98v-218.98h452v218.98z" fill="#5e54ac"/><g><path d="m362.63 497c0 8.28-6.71 15-15 15h-183.26c-8.29 0-15-6.72-15-15s6.71-15 15-15h183.26c8.29 0 15 6.72 15 15z" fill="#5e54ac"/></g><path d="m362.63 497c0 8.28-6.71 15-15 15h-93.55v-30h93.55c8.29 0 15 6.72 15 15z" fill="#453d81"/><path d="m512 139.43v293.98c0 8.28-6.72 15-15 15h-242.92v-75h227.92v-218.98h-227.92v-30h242.92c8.28 0 15 6.72 15 15z" fill="#453d81"/><g><g><path d="m393.15 110.25-31.8-3.53 19.94-25.02c4.76-5.98 4.27-14.59-1.15-19.98l-35.92-35.76c-5.41-5.39-14.02-5.85-19.98-1.06l-24.52 19.72-3.47-31.27c-.84-7.6-7.26-13.35-14.91-13.35h-50.68c-7.65 0-14.07 5.75-14.91 13.35l-3.53 31.8-25.02-19.94c-5.98-4.76-14.59-4.27-19.98 1.15l-35.76 35.92c-5.39 5.42-5.85 14.02-1.06 19.98l19.72 24.52-31.27 3.47c-7.6.84-13.35 7.27-13.35 14.91v50.68c0 7.64 5.75 14.07 13.35 14.91l31.8 3.53-19.94 25.02c-4.76 5.98-4.27 14.59 1.15 19.98l35.92 35.76c5.41 5.39 14.02 5.85 19.98 1.06l24.52-19.72 3.47 31.27c.84 7.6 7.26 13.35 14.91 13.35h50.68c7.65 0 14.07-5.75 14.91-13.35l3.53-31.8 25.02 19.94c5.98 4.76 14.59 4.27 19.98-1.15l35.76-35.92c5.39-5.42 5.85-14.02 1.06-19.98l-19.72-24.52 31.27-3.47c7.6-.84 13.35-7.27 13.35-14.91v-50.68c0-7.64-5.75-14.07-13.35-14.91zm-137.15 95.43c-.64 0-1.28-.01-1.92-.04-29.54-1.01-53.26-25.36-53.26-55.14s23.72-54.13 53.26-55.14c.64-.03 1.28-.04 1.92-.04 30.43 0 55.18 24.76 55.18 55.18s-24.75 55.18-55.18 55.18z" fill="#fabe2c"/></g></g><path d="m406.5 125.16v50.68c0 7.64-5.75 14.07-13.35 14.91l-31.27 3.47 19.72 24.52c4.79 5.96 4.33 14.56-1.06 19.98l-35.76 35.92c-5.39 5.42-14 5.91-19.98 1.15l-25.02-19.94-3.53 31.8c-.84 7.6-7.26 13.35-14.91 13.35h-27.26v-95.36c.64.03 1.28.04 1.92.04 30.43 0 55.18-24.76 55.18-55.18s-24.75-55.18-55.18-55.18c-.64 0-1.28.01-1.92.04v-95.36h27.26c7.65 0 14.07 5.75 14.91 13.35l3.47 31.27 24.52-19.72c5.96-4.79 14.57-4.33 19.98 1.06l35.92 35.76c5.42 5.39 5.91 14 1.15 19.98l-19.94 25.02 31.8 3.53c7.6.84 13.35 7.27 13.35 14.91z" fill="#ff9100"/></g></symbol><symbol id="009-home" viewBox="0 0 512 512">
<polygon style="fill:#FFB74F;" points="432.106,250.534 432.106,470.021 296.578,470.021 296.578,336.975 221.399,336.975 
	221.399,470.021 79.894,470.021 79.894,250.534 256,115.075 "/>
<path style="fill:#FF7D3C;" d="M439.485,183.135V90.306h-74.167v35.772L256,41.979L0,238.92l53.633,69.712L256,152.959
	l202.367,155.672L512,238.92L439.485,183.135z"/>
<polygon style="fill:#FF9A00;" points="432.106,250.534 432.106,470.021 296.578,470.021 296.578,336.975 256,336.975 256,115.075 
	"/>
<polygon style="fill:#FF4E19;" points="512,238.92 458.367,308.632 256,152.959 256,41.979 365.318,126.078 365.318,90.306 
	439.485,90.306 439.485,183.135 "/>
<g>
</g>
<g>
</g>
<g>
</g>
<g>
</g>
<g>
</g>
<g>
</g>
<g>
</g>
<g>
</g>
<g>
</g>
<g>
</g>
<g>
</g>
<g>
</g>
<g>
</g>
<g>
</g>
<g>
</g>
</symbol><symbol id="010-folder" viewBox="0 0 128 128"><path d="m114.028 23.976h-38.418l-7.6-9.566a5.957 5.957 0 0 0 -4.664-2.251h-51.719a5.955 5.955 0 0 0 -5.955 5.954v67.841a8.854 8.854 0 0 0 8.854 8.854h99.5a8.855 8.855 0 0 0 8.855-8.854v-53.124a8.855 8.855 0 0 0 -8.853-8.854z" fill="#f7b521"/><rect fill="#fff" height="61.821" rx="4.23" width="96.311" x="14.764" y="32.905"/><path d="m113.751 115.841h-99.5c-4.89 0-9.115-3.666-9.441-8.233l-3.786-53.084a8.8 8.8 0 0 1 8.939-9.514h108.074a8.8 8.8 0 0 1 8.939 9.514l-3.784 53.084c-.326 4.567-4.551 8.233-9.441 8.233z" fill="#ffc943"/><g opacity=".5"><path d="m126.973 54.523-3.773 53.083c-.328 4.575-4.551 8.235-9.443 8.235h-99.507a9.5 9.5 0 0 1 -9.057-6.334 9.42 9.42 0 0 0 2.382.3h99.5c4.892 0 9.115-3.672 9.443-8.236l3.79-53.082a9.2 9.2 0 0 0 -.352-3.285 8.748 8.748 0 0 1 7.017 9.319z" fill="#f7b521"/></g><g fill="#f7b521"><path d="m86.893 69.5h-45.786a1 1 0 0 1 0-2h45.786a1 1 0 0 1 0 2z"/><path d="m86.893 80.594h-45.786a1 1 0 0 1 0-2h45.786a1 1 0 0 1 0 2z"/><path d="m86.893 91.694h-45.786a1 1 0 1 1 0-2h45.786a1 1 0 0 1 0 2z"/></g></symbol><symbol id="011-bookmark" viewBox="0 0 74 74"><g id="color_line" data-name="color line"><path d="m13.085 3h47.83a8.025 8.025 0 0 1 8.025 8.025v59.975l-23.915-15.248-23.915 15.248v-48.579" fill="#fe7058"/><path d="m68.94 11.03v59.97l-4.01-2.56v-54.2a8.028 8.028 0 0 0 -8.03-8.02h-42.49l-1.33-3.22h47.84a8.021 8.021 0 0 1 8.02 8.03z" fill="#ea6453"/><path d="m13.085 3a8.025 8.025 0 0 0 -8.025 8.025v11.4h16.05v-11.4a8.025 8.025 0 0 0 -8.025-8.025z" fill="#fe7058"/><g fill="#323c6b"><path d="m21.11 22.921h-16.05a.5.5 0 0 1 -.5-.5v-11.4a8.525 8.525 0 1 1 17.051 0v11.4a.5.5 0 0 1 -.501.5zm-15.551-1h15.051v-10.9a7.525 7.525 0 1 0 -15.051 0z"/><path d="m35.023 66.188a.5.5 0 0 1 -.27-.921l6.915-4.409a.5.5 0 1 1 .538.843l-6.915 4.409a.5.5 0 0 1 -.268.078z"/><path d="m32.25 67.956a.5.5 0 0 1 -.27-.921l.516-.329a.5.5 0 1 1 .538.843l-.516.329a.5.5 0 0 1 -.268.078z"/><path d="m71.872 10.313a.5.5 0 0 1 -.5-.445 10.483 10.483 0 0 0 -3.66-6.861.5.5 0 0 1 .647-.762 11.478 11.478 0 0 1 4.006 7.514.5.5 0 0 1 -.442.552z"/><path d="m71.94 12.938a.5.5 0 0 1 -.5-.5v-.688a.5.5 0 0 1 1 0v.688a.5.5 0 0 1 -.5.5z"/><path d="m68.94 71.5a.5.5 0 0 1 -.269-.079l-23.646-15.076-23.646 15.076a.5.5 0 0 1 -.769-.421v-48.579a.5.5 0 0 1 1 0v47.667l23.146-14.757a.5.5 0 0 1 .538 0l23.146 14.757v-59.063a7.534 7.534 0 0 0 -7.525-7.525h-47.83a.5.5 0 0 1 0-1h47.83a8.535 8.535 0 0 1 8.525 8.525v59.975a.5.5 0 0 1 -.5.5z"/></g><path d="m24.044 39.381.017-7.356a.6.6 0 1 1 1.2 0l-.017 7.356a.6.6 0 1 1 -1.2 0z" fill="#fff"/><path d="m24.026 41.673v-.232a.6.6 0 0 1 1.2 0v.232a.6.6 0 1 1 -1.2 0z" fill="#fff"/></g></symbol><symbol id="012-website" viewBox="0 0 497 497"><g><path d="m369.512 497h-321.861c-2.761 0-5-2.239-5-5v-358.601l331.861-29.601v388.202c0 2.761-2.239 5-5 5z" fill="#eef5f6"/><path d="m100.938 133.399h-58.287v-48.563c0-2.761 2.239-5 5-5h53.287z" fill="#b3dafe"/><path d="m409.43 457.082h-321.861c-2.761 0-5-2.239-5-5v-358.601l331.861-31.767v390.368c0 2.761-2.239 5-5 5z" fill="#ffe177"/><path d="m136.131 93.481h-53.562v-48.563c0-2.761 2.239-5 5-5h48.563v53.563z" fill="#6354b1"/><path d="m449.348 416.164-29.999 1h-291.862c-2.761 0-5-2.239-5-5v-358.601l301.862-30.188h28.999v388.789c0 2.761-1.239 4-4 4z" fill="#eef5f6"/><path d="m390.515 323.678h-204.195c-4.142 0-7.5-3.358-7.5-7.5s3.358-7.5 7.5-7.5h204.195c4.142 0 7.5 3.358 7.5 7.5s-3.358 7.5-7.5 7.5z" fill="#6354b1"/><path d="m390.515 366.06h-204.195c-4.142 0-7.5-3.358-7.5-7.5s3.358-7.5 7.5-7.5h204.195c4.142 0 7.5 3.358 7.5 7.5s-3.358 7.5-7.5 7.5z" fill="#6354b1"/><path d="m385.515 145.651-29.349 1h-164.846c-2.761 0-5-2.239-5-5v-32.382c0-2.761 2.239-5 5-5h164.68l29.516 1c2.761 0 4 1.239 4 4v32.382c-.001 2.761-1.24 4-4.001 4z" fill="#ffe177"/><path d="m232.805 235.101-14.971-1h-9.348c-2.761 0-5 2.239-5 5v34.695h33.319v-34.695c0-2.761-1.238-4-4-4z" fill="#b3dafe"/><path d="m300.577 207.262-15.827-1h-8.492c-2.762 0-5 2.239-5 5v62.534h33.319v-62.534c0-2.762-1.239-4-4-4z" fill="#fd8087"/><path d="m368.348 185.151-16.986-1h-7.332c-2.761 0-5 2.239-5 5v84.646h17.32 15.998v-84.646c0-2.762-1.239-4-4-4z" fill="#ffe177"/><path d="m454.349 53.56v358.6c0 2.77-2.24 5-5 5h-30c2.76 0 5-2.23 5-5v-388.79z" fill="#deecf1"/><path d="m453.348 53.563h-330.861v-48.563c0-2.761 2.239-5 5-5h291.863l29.999 1c2.761 0 4 1.239 4 4v48.563z" fill="#fd8087"/><path d="m155.223 34.361c-4.186 0-7.58-3.393-7.58-7.58 0-4.186 3.393-7.58 7.58-7.58 4.186 0 7.58 3.394 7.58 7.58 0 4.187-3.394 7.58-7.58 7.58z" fill="#b3dafe"/><path d="m179.513 34.361c-4.186 0-7.58-3.393-7.58-7.58 0-4.186 3.394-7.58 7.58-7.58 4.186 0 7.58 3.394 7.58 7.58 0 4.187-3.394 7.58-7.58 7.58z" fill="#ffe177"/><path d="m203.803 34.361c-4.186 0-7.58-3.393-7.58-7.58 0-4.186 3.393-7.58 7.58-7.58 4.186 0 7.58 3.394 7.58 7.58-.001 4.187-3.394 7.58-7.58 7.58z" fill="#6354b1"/><path d="m454.349 5v48.56h-30v-48.56c0-2.76-2.24-5-5-5h30c2.76 0 5 2.24 5 5z" fill="#e6646e"/><path d="m390.519 109.27v32.38c0 2.76-2.24 5-5 5h-30c2.76 0 5-2.24 5-5v-32.38c0-2.76-2.24-5-5-5h30c2.76 0 5 2.24 5 5z" fill="#ffc344"/><path d="m373.349 189.15v84.65h-17v-84.65c0-2.76-2.24-5-5-5h17c2.76 0 5 2.24 5 5z" fill="#ffc344"/><path d="m305.579 211.26v62.54h-17v-62.54c0-2.76-2.24-5-5-5h17c2.76 0 5 2.24 5 5z" fill="#e6646e"/><path d="m237.809 239.1v34.7h-15v-34.7c0-2.76-2.24-5-5-5h15c2.76 0 5 2.24 5 5z" fill="#8ac9fe"/><path d="m390.515 281.296h-204.195c-4.142 0-7.5-3.358-7.5-7.5s3.358-7.5 7.5-7.5h204.195c4.142 0 7.5 3.358 7.5 7.5 0 4.143-3.358 7.5-7.5 7.5z" fill="#6354b1"/></g></symbol><symbol id="013-settings" viewBox="0 0 512.004 512.004"><g><path d="m186.526 377.196 200.67-200.67c32.81 12.855 71.538 6.046 98.047-20.464 26.502-26.502 33.312-65.231 20.464-98.047l-46.294 46.294-40.793-10.925-10.925-40.793 46.294-46.294c-32.817-12.848-71.545-6.039-98.047 20.464-26.509 26.509-33.319 65.238-20.464 98.047l-200.67 200.67c-35.299-14.878-77.619-7.941-106.377 20.817-37.908 37.908-37.908 99.37 0 137.278s99.37 37.908 137.278 0c28.758-28.758 35.695-71.079 20.817-106.377zm-115.315 63.597c-14.284-14.284-14.277-37.441 0-51.718 14.284-14.284 37.434-14.283 51.718 0s14.284 37.434 0 51.718c-14.277 14.276-37.434 14.283-51.718 0z" fill="#60e2f4"/><path d="m165.709 483.573c-37.908 37.908-99.37 37.908-137.278 0l42.78-42.78c14.284 14.284 37.441 14.277 51.718 0 14.284-14.284 14.283-37.434 0-51.718l295.69-295.691 40.793 10.925 46.294-46.294c12.848 32.817 6.039 71.545-20.464 98.047-26.509 26.509-65.238 33.319-98.047 20.464l-200.67 200.67c14.879 35.298 7.942 77.619-20.816 106.377z" fill="#29c5ec"/><path d="m372.279 351.065-276.104-276.104 19.014-19.014-70.979-55.946-44.209 44.208 55.947 70.98 19.014-19.015 276.104 276.104z" fill="#cddbf9"/><path d="m361.672 361.672-339.567-339.567-22.104 22.104 55.947 70.98 19.014-19.015 276.104 276.104z" fill="#f3f6ff"/><path d="m304.439 376.96 51.718 51.717 22.465-.304 50.098-50.098-.042-22.119-51.718-51.717z" fill="#3c4a83"/><path d="m304.439 376.96 51.718 51.717 22.465-.304 24.876-24.876-62.798-62.798z" fill="#48588b"/><path d="m356.157 428.677 68.299 68.299c10.02 10.02 23.144 15.026 36.268 15.026s26.248-5.006 36.26-15.019c20.025-20.025 20.025-52.496-.007-72.528l-68.299-68.299z" fill="#ea0016"/><path d="m356.157 428.677 68.299 68.299c10.02 10.02 23.144 15.026 36.268 15.026s26.248-5.006 36.26-15.019l-104.567-104.566z" fill="#ff641a"/></g></symbol><symbol id="014-aws-s3" viewBox="0 0 256 310"><g><path d="M20.624,53.686 L0,64 L0,245.02 L20.624,255.274 L20.748,255.125 L20.748,53.828 L20.624,53.686" fill="#8C3123"/><path d="M131,229 L20.624,255.274 L20.624,53.686 L131,79.387 L131,229" fill="#E05243"/><path d="M81.178,187.866 L127.996,193.826 L128.29,193.148 L128.553,116.378 L127.996,115.778 L81.178,121.652 L81.178,187.866" fill="#8C3123"/><path d="M127.996,229.295 L235.367,255.33 L235.536,255.061 L235.533,53.866 L235.363,53.686 L127.996,79.682 L127.996,229.295" fill="#8C3123"/><path d="M174.827,187.866 L127.996,193.826 L127.996,115.778 L174.827,121.652 L174.827,187.866" fill="#E05243"/><path d="M174.827,89.631 L127.996,98.166 L81.178,89.631 L127.937,77.375 L174.827,89.631" fill="#5E1F18"/><path d="M174.827,219.801 L127.996,211.21 L81.178,219.801 L127.939,232.854 L174.827,219.801" fill="#F2B0A9"/><path d="M81.178,89.631 L127.996,78.045 L128.375,77.928 L128.375,0.313 L127.996,0 L81.178,23.413 L81.178,89.631" fill="#8C3123"/><path d="M174.827,89.631 L127.996,78.045 L127.996,0 L174.827,23.413 L174.827,89.631" fill="#E05243"/><path d="M127.996,309.428 L81.173,286.023 L81.173,219.806 L127.996,231.388 L128.685,232.171 L128.498,308.077 L127.996,309.428" fill="#8C3123"/><path d="M127.996,309.428 L174.823,286.023 L174.823,219.806 L127.996,231.388 L127.996,309.428" fill="#E05243"/><path d="M235.367,53.686 L256,64 L256,245.02 L235.367,255.33 L235.367,53.686" fill="#E05243"/></g></symbol><symbol id="015-vagueness" viewBox="0 0 512 512"><g><g fill="#43809f"><path d="m432.981 194.798h-78.321c-2.885 0-5.514 1.654-6.762 4.255l-13.595 28.328h-68.764c-4.143 0-7.5 3.358-7.5 7.5s3.357 7.5 7.5 7.5h73.483c2.885 0 5.514-1.654 6.762-4.255l13.595-28.328h73.602c4.143 0 7.5-3.358 7.5-7.5s-3.358-7.5-7.5-7.5z"/><path d="m275.027 114.1h41.595c3.047 0 5.791-1.843 6.943-4.664l19.967-48.882h59.588c4.143 0 7.5-3.358 7.5-7.5s-3.357-7.5-7.5-7.5h-64.626c-3.047 0-5.791 1.843-6.943 4.664l-19.967 48.882h-36.557c-4.143 0-7.5 3.358-7.5 7.5s3.358 7.5 7.5 7.5z"/><path d="m394.5 377.986h-51.116l-16.359-23.739c-1.4-2.031-3.709-3.244-6.176-3.244h-45.821c-4.143 0-7.5 3.358-7.5 7.5s3.357 7.5 7.5 7.5h41.882l16.359 23.739c1.4 2.031 3.709 3.244 6.176 3.244h55.055c4.143 0 7.5-3.358 7.5-7.5s-3.357-7.5-7.5-7.5z"/></g><path d="m265.116 300.403h-241.782c-12.887 0-23.334-10.447-23.334-23.334v-84.375c0-12.887 10.447-23.334 23.334-23.334h241.782c12.887 0 23.334 10.447 23.334 23.334v84.375c.001 12.887-10.446 23.334-23.334 23.334z" fill="#88c3e0"/><path d="m265.787 169.36h-30.905c12.517 0 22.664 10.756 22.664 24.025v82.994c0 13.268-10.147 24.025-22.664 24.025h30.905c12.517 0 22.664-10.756 22.664-24.025v-82.994c0-13.269-10.147-24.025-22.664-24.025z" fill="#6eabc9"/><path d="m128.773 412.284h30.905v45.936h-30.905z" fill="#43809f"/><path d="m508 512h-504c-2.209 0-4-1.791-4-4v-22.905c0-2.209 1.791-4 4-4h504c2.209 0 4 1.791 4 4v22.905c0 2.209-1.791 4-4 4z" fill="#43809f"/><path d="m287.195 63.84h-285.628l17.729-53.281c2.102-6.294 8.159-10.559 14.989-10.559h220.459c6.83 0 12.888 4.265 14.989 10.559z" fill="#29cef6"/><path d="m269.444 10.559c-2.102-6.294-8.159-10.559-14.989-10.559h-30.905c6.83 0 12.888 4.265 14.989 10.559l17.461 53.281h30.905z" fill="#22b5ed"/><path d="m265.787 173.071h-243.123c-12.517 0-22.664-10.147-22.664-22.664v-78.294c0-12.517 10.147-22.664 22.664-22.664h243.123c12.517 0 22.664 10.147 22.664 22.664v78.294c0 12.517-10.147 22.664-22.664 22.664z" fill="#a9dbf5"/><path d="m265.787 49.449h-30.905c12.517 0 22.664 10.147 22.664 22.664v78.294c0 12.517-10.147 22.664-22.664 22.664h30.905c12.517 0 22.664-10.147 22.664-22.664v-78.294c0-12.517-10.147-22.664-22.664-22.664z" fill="#88c3e0"/><path d="m30.906 138.044v-53.569c0-2.276 1.845-4.121 4.121-4.121h218.398c2.276 0 4.121 1.845 4.121 4.121v53.569c0 2.276-1.845 4.121-4.121 4.121h-218.399c-2.276 0-4.12-1.845-4.12-4.121z" fill="#43809f"/><path d="m78.287 113.32c-8.534 0-15.453-6.918-15.453-15.453v-17.513h30.906v17.513c0 8.535-6.919 15.453-15.453 15.453z" fill="#f78e36"/><path d="m129.803 113.32c-8.534 0-15.453-6.918-15.453-15.453v-17.513h30.905v17.513c.001 8.535-6.918 15.453-15.452 15.453z" fill="#f78e36"/><path d="m30.906 261.666v-53.569c0-2.276 1.845-4.121 4.121-4.121h218.398c2.276 0 4.121 1.845 4.121 4.121v53.569c0 2.276-1.845 4.121-4.121 4.121h-218.399c-2.276 0-4.12-1.845-4.12-4.121z" fill="#43809f"/><path d="m78.287 236.942c-8.534 0-15.453-6.918-15.453-15.453v-17.513h30.906v17.513c0 8.534-6.919 15.453-15.453 15.453z" fill="#f78e36"/><path d="m129.803 236.942c-8.534 0-15.453-6.918-15.453-15.453v-17.513h30.905v17.513c.001 8.534-6.918 15.453-15.452 15.453z" fill="#f78e36"/><path d="m265.787 420.314h-243.123c-12.517 0-22.664-10.147-22.664-22.664v-78.294c0-12.517 10.147-22.664 22.664-22.664h243.123c12.517 0 22.664 10.147 22.664 22.664v78.294c0 12.517-10.147 22.664-22.664 22.664z" fill="#a9dbf5"/><path d="m265.787 296.692h-30.905c12.517 0 22.664 10.147 22.664 22.664v78.294c0 12.517-10.147 22.664-22.664 22.664h30.905c12.517 0 22.664-10.147 22.664-22.664v-78.294c0-12.517-10.147-22.664-22.664-22.664z" fill="#88c3e0"/><path d="m30.906 385.288v-53.569c0-2.276 1.845-4.121 4.121-4.121h218.398c2.276 0 4.121 1.845 4.121 4.121v53.569c0 2.276-1.845 4.121-4.121 4.121h-218.399c-2.276 0-4.12-1.845-4.12-4.121z" fill="#43809f"/><g fill="#f78e36"><path d="m78.287 360.564c-8.534 0-15.453-6.918-15.453-15.453v-17.513h30.906v17.513c0 8.534-6.919 15.453-15.453 15.453z"/><path d="m129.803 360.564c-8.534 0-15.453-6.918-15.453-15.453v-17.513h30.905v17.513c.001 8.534-6.918 15.453-15.452 15.453z"/><path d="m190.584 481.095v30.905h-92.717v-30.905h30.906v-30.906h30.905v30.906z"/><path d="m457.916 99.413h-72.113c-5.69 0-10.302-4.612-10.302-10.302v-72.113c0-5.69 4.612-10.302 10.302-10.302h72.113c5.69 0 10.302 4.612 10.302 10.302v72.113c-.001 5.689-4.613 10.302-10.302 10.302z"/></g><path d="m457.916 6.696h-30.906c5.69 0 10.302 4.612 10.302 10.302v72.113c0 5.69-4.612 10.302-10.302 10.302h30.905c5.69 0 10.302-4.612 10.302-10.302v-72.113c0-5.689-4.612-10.302-10.301-10.302z" fill="#f86f1b"/><path d="m501.698 247.244h-72.113c-5.69 0-10.302-4.612-10.302-10.302v-72.113c0-5.69 4.612-10.302 10.302-10.302h72.113c5.69 0 10.302 4.612 10.302 10.302v72.113c0 5.689-4.612 10.302-10.302 10.302z" fill="#ffc328"/><path d="m501.698 154.527h-30.905c5.69 0 10.302 4.612 10.302 10.302v72.113c0 5.69-4.612 10.302-10.302 10.302h30.905c5.69 0 10.302-4.612 10.302-10.302v-72.113c0-5.689-4.612-10.302-10.302-10.302z" fill="#ffb200"/><path d="m457.916 431.844h-72.113c-5.69 0-10.302-4.612-10.302-10.302v-72.112c0-5.69 4.612-10.302 10.302-10.302h72.113c5.69 0 10.302 4.612 10.302 10.302v72.113c-.001 5.689-4.613 10.301-10.302 10.301z" fill="#7be492"/><path d="m457.916 339.128h-30.906c5.69 0 10.302 4.612 10.302 10.302v72.113c0 5.69-4.612 10.302-10.302 10.302h30.905c5.69 0 10.302-4.612 10.302-10.302v-72.113c0-5.69-4.612-10.302-10.301-10.302z" fill="#45d987"/></g></symbol><symbol id="016-chatbot" viewBox="0 0 512 512"><g><path d="m256 22c-135.31 0-245 109.69-245 245 0 75.838 34.463 143.623 88.576 188.563l1-.47v-13.163c0-21.505 17.495-39 39-39h232.848c21.505 0 39 17.495 39 39v13.163l1 .47c54.113-44.94 88.576-112.725 88.576-188.563 0-135.31-109.69-245-245-245z" fill="#26a6fe"/><g><g><path d="m178 382.523h156v20.407h-156z" fill="#fff"/></g><g><path d="m178 382.523h40v20.407h-40z" fill="#eaf6ff"/></g><g><path d="m372.424 401.93h-232.848c-22.091 0-40 17.909-40 40v13.633c42.435 35.241 96.953 56.437 156.424 56.437s113.989-21.196 156.424-56.437v-13.633c0-22.092-17.909-40-40-40z" fill="#d8ecfe"/></g><path d="m141.153 441.93c0-22.091 17.909-40 40-40h-41.576c-22.091 0-40 17.909-40 40v13.633c12.82 10.646 26.748 20 41.576 27.886z" fill="#c4e2ff"/><g><path d="m259.786 479.437 28.618-33.171c2.795-3.24.493-8.266-3.786-8.266h-57.235c-4.279 0-6.581 5.026-3.786 8.266l28.618 33.171c1.994 2.312 5.576 2.312 7.571 0z" fill="#fff"/></g><path d="m244.224 446.266c-2.795-3.24-.494-8.266 3.786-8.266h-20.627c-4.279 0-6.581 5.026-3.786 8.266l28.617 33.171c1.995 2.312 5.577 2.312 7.572 0l6.528-7.567z" fill="#eaf6ff"/><g><g><path d="m97.902 336.729v-43.404c0-7.981.794-15.779 2.296-23.326h-7.306c-14.768 0-26.739 11.971-26.739 26.739v22.728c0 14.768 11.971 26.739 26.739 26.739h6.003c-.647-3.058-.993-6.227-.993-9.476z" fill="#fff"/></g><g><path d="m419.108 270h-7.306c1.502 7.546 2.296 15.345 2.296 23.326v43.404c0 3.249-.346 6.418-.992 9.477h6.003c14.768 0 26.739-11.971 26.739-26.739v-22.728c-.001-14.769-11.972-26.74-26.74-26.74z" fill="#fff"/></g></g><g><path d="m368.304 383.523h-224.608c-25.843 0-46.793-20.95-46.793-46.793v-43.404c0-66.454 53.871-120.326 120.325-120.326h77.543c66.454 0 120.326 53.872 120.326 120.326v43.404c0 25.843-20.95 46.793-46.793 46.793z" fill="#d8ecfe"/></g><path d="m149 336.729v-15.555c-7.539-10.63-11.989-23.597-11.989-37.592 0-23.534 12.544-44.192 31.296-55.644 21.445-33.062 58.675-54.938 101.019-54.938h-52.098c-66.454 0-120.326 53.872-120.326 120.326v43.404c0 25.843 20.95 46.793 46.793 46.793h52.098c-25.843 0-46.793-20.95-46.793-46.794z" fill="#c4e2ff"/><g><path d="m202.164 348.736c-35.925 0-65.153-29.228-65.153-65.153s29.228-65.153 65.153-65.153h107.672c35.925 0 65.153 29.228 65.153 65.153s-29.228 65.153-65.153 65.153z" fill="#116d9a"/></g><g><path d="m179 283.583c0-35.925 29.228-65.153 65.153-65.153h-41.989c-35.925 0-65.153 29.228-65.153 65.153s29.228 65.153 65.153 65.153h41.989c-35.925 0-65.153-29.228-65.153-65.153z" fill="#005e89"/></g><g><path d="m290.761 315.001h-69.522c-3.692 0-6.685-2.993-6.685-6.685v-10.696c0-3.692 2.993-6.685 6.685-6.685h69.522c3.692 0 6.685 2.993 6.685 6.685v10.696c0 3.692-2.993 6.685-6.685 6.685z" fill="#fed402"/></g><g><g><path d="m202.856 282.914h-17.38c-3.692 0-6.685-2.993-6.685-6.685v-17.38c0-3.692 2.993-6.685 6.685-6.685h17.38c3.692 0 6.685 2.993 6.685 6.685v17.38c0 3.692-2.993 6.685-6.685 6.685z" fill="#fed402"/></g><g><path d="m326.524 282.914h-17.38c-3.692 0-6.685-2.993-6.685-6.685v-17.38c0-3.692 2.993-6.685 6.685-6.685h17.38c3.692 0 6.685 2.993 6.685 6.685v17.38c0 3.692-2.993 6.685-6.685 6.685z" fill="#fed402"/></g></g></g><g><g><g><path d="m360.627 84h112.745c6.227 0 11.275 5.048 11.275 11.275v112.745c0 6.227-5.048 11.275-11.275 11.275h-69.501c-.796 0-1.559.316-2.121.879l-21.8 21.8c-2.131 2.131-5.774.622-5.774-2.392v-17.287c0-1.657-1.343-3-3-3h-10.548c-6.227 0-11.275-5.048-11.275-11.275v-112.746c0-6.226 5.048-11.274 11.274-11.274z" fill="#60b7ff"/></g><g><g><path d="m444 162h10c2.761 0 5-2.239 5-5v-10c0-2.761-2.239-5-5-5h-10c-2.761 0-5 2.239-5 5v10c0 2.761 2.239 5 5 5z" fill="#fff"/></g><g><path d="m412 162h10c2.761 0 5-2.239 5-5v-10c0-2.761-2.239-5-5-5h-10c-2.761 0-5 2.239-5 5v10c0 2.761 2.239 5 5 5z" fill="#fff"/></g><g><path d="m380 162h10c2.761 0 5-2.239 5-5v-10c0-2.761-2.239-5-5-5h-10c-2.761 0-5 2.239-5 5v10c0 2.761 2.239 5 5 5z" fill="#fff"/></g></g></g><g><g><g><g><path d="m151.373 84h-112.746c-6.227 0-11.274 5.048-11.274 11.274v112.746c0 6.227 5.048 11.275 11.275 11.275h69.501c.796 0 1.559.316 2.121.879l21.8 21.8c2.131 2.131 5.774.622 5.774-2.392v-17.287c0-1.657 1.343-3 3-3h10.548c6.227 0 11.275-5.048 11.275-11.275v-112.746c0-6.226-5.048-11.274-11.274-11.274z" fill="#8bc727"/></g></g><g><path d="m58.706 208.02v-112.746c0-6.226 5.048-11.274 11.274-11.274h-31.353c-6.227 0-11.275 5.048-11.275 11.274v112.746c0 6.227 5.048 11.275 11.275 11.275h31.353c-6.226-.001-11.274-5.049-11.274-11.275z" fill="#81b823"/></g><g><g><path d="m110.112 126.5h-52.612c-4.143 0-7.5-3.358-7.5-7.5s3.357-7.5 7.5-7.5h52.612c4.143 0 7.5 3.358 7.5 7.5s-3.357 7.5-7.5 7.5z" fill="#fff"/></g><g><path d="m132.5 157.5h-75c-4.143 0-7.5-3.358-7.5-7.5s3.357-7.5 7.5-7.5h75c4.143 0 7.5 3.358 7.5 7.5s-3.357 7.5-7.5 7.5z" fill="#fff"/></g><g><path d="m132.5 188.5h-75c-4.143 0-7.5-3.358-7.5-7.5s3.357-7.5 7.5-7.5h75c4.143 0 7.5 3.358 7.5 7.5s-3.357 7.5-7.5 7.5z" fill="#fff"/></g></g></g></g></g><path d="m373 0h-234c-5.523 0-10 4.477-10 10v105c0 5.523 4.477 10 10 10h94.81c1.065 0 2.051.565 2.589 1.484l14.079 24.043c1.931 3.298 6.698 3.298 8.629 0l14.079-24.043c.538-.919 1.524-1.484 2.589-1.484h97.225c5.523 0 10-4.477 10-10v-105c0-5.523-4.477-10-10-10z" fill="#fed402"/><g><path d="m159 115v-105c0-5.523 4.477-10 10-10h-30c-5.523 0-10 4.477-10 10v105c0 5.523 4.477 10 10 10h30c-5.523 0-10-4.477-10-10z" fill="#fac600"/></g><g><path d="m178 35.5h-4.5c-4.143 0-7.5-3.358-7.5-7.5s3.357-7.5 7.5-7.5h4.5c4.143 0 7.5 3.358 7.5 7.5s-3.357 7.5-7.5 7.5z" fill="#fff"/></g><g><path d="m338.5 35.5h-134.5c-4.143 0-7.5-3.358-7.5-7.5s3.357-7.5 7.5-7.5h134.5c4.143 0 7.5 3.358 7.5 7.5s-3.357 7.5-7.5 7.5z" fill="#fff"/></g><g><path d="m338.5 68h-165c-4.143 0-7.5-3.358-7.5-7.5s3.357-7.5 7.5-7.5h165c4.143 0 7.5 3.358 7.5 7.5s-3.357 7.5-7.5 7.5z" fill="#fff"/></g><g><path d="m252 100.5h-78.5c-4.143 0-7.5-3.358-7.5-7.5s3.357-7.5 7.5-7.5h78.5c4.143 0 7.5 3.358 7.5 7.5s-3.357 7.5-7.5 7.5z" fill="#fff"/></g></g></symbol><symbol id="017-3d-modeling" viewBox="0 0 512 512"><g><path d="m128 68.143h188v358.214h-188z" fill="#09a1e5"/><path d="m256 0-128 68.143 128 68.143h128v-68.143z" fill="#3ec3ff"/><path d="m324 136.286 60 375.714 128-68.143v-307.571z" fill="#962b7c"/><path d="m256 136.286v136.286l-50 85.642 50 85.643 128 68.143v-375.714z" fill="#cb2e81"/><path d="m512 136.286-128-68.143-128 68.143 128 68.142z" fill="#ff3187"/><path d="m68 272.572 60 239.428 128-68.143v-171.285z" fill="#ff9259"/><path d="m0 272.572v171.285l128 68.143v-239.428z" fill="#ffb24a"/><path d="m128 204.428-128 68.144 128 68.142 128-68.142z" fill="#ffd23b"/></g></symbol><symbol id="018-speedometer" viewBox="0 0 512 512">
<path style="fill:#F8B64C;" d="M256,86.4c51.2,0,98.133,21.333,132.267,54.4l49.067-49.067
	C391.467,45.867,327.467,17.067,256,17.067c-70.4,0-134.4,28.8-181.333,74.667l49.067,49.067C157.867,106.667,204.8,86.4,256,86.4z"/>
<path style="fill:#54C0EB;" d="M123.733,140.8L74.667,91.733C28.8,138.667,0,202.667,0,273.067s28.8,134.4,74.667,181.333
	l49.067-49.067c-34.133-34.133-54.4-81.067-54.4-132.267C69.333,221.867,89.6,174.933,123.733,140.8z"/>
<path style="fill:#F1543F;" d="M437.333,91.733L388.267,140.8c34.133,34.133,54.4,81.067,54.4,132.267s-21.333,98.133-54.4,132.267
	l49.067,49.067C483.2,408.533,512,344.533,512,273.067C512,202.667,483.2,138.667,437.333,91.733z"/>
<path style="fill:#FFD15C;" d="M388.267,140.8l-46.933,46.933c-22.4-21.333-52.267-35.2-85.333-35.2s-64,13.867-85.333,35.2l0,0
	L123.733,140.8C157.867,106.667,204.8,86.4,256,86.4S354.133,106.667,388.267,140.8z"/>
<path style="fill:#84DBFF;" d="M170.667,358.4l-46.933,46.933c-34.133-34.133-54.4-81.067-54.4-132.267s21.333-98.133,54.4-132.267
	l46.933,46.933c-21.333,21.333-35.2,52.267-35.2,85.333C134.4,306.133,148.267,337.067,170.667,358.4z"/>
<path style="fill:#FF7058;" d="M442.667,273.067c0,51.2-21.333,98.133-54.4,132.267L341.333,358.4
	c21.333-22.4,35.2-52.267,35.2-85.333s-13.867-64-35.2-85.333l46.933-46.933C422.4,174.933,442.667,221.867,442.667,273.067z"/>
<path style="fill:#40596B;" d="M420.267,171.733L281.6,277.333c-2.133,12.8-12.8,21.333-25.6,21.333
	c-14.933,0-26.667-11.733-26.667-26.667s11.733-26.667,26.667-26.667c3.2,0,5.333,0,8.533,1.067L420.267,171.733z"/>
<path style="fill:#CDD6E0;" d="M347.733,494.933H164.267c-22.4,0-40.533-18.133-40.533-40.533l0,0
	c0-22.4,18.133-40.533,40.533-40.533h182.4c22.4,0,40.533,18.133,40.533,40.533l0,0C388.267,476.8,370.133,494.933,347.733,494.933z
	"/>
<circle style="fill:#FFFFFF;" cx="256" cy="273.07" r="10.667"/>
<g>
</g>
<g>
</g>
<g>
</g>
<g>
</g>
<g>
</g>
<g>
</g>
<g>
</g>
<g>
</g>
<g>
</g>
<g>
</g>
<g>
</g>
<g>
</g>
<g>
</g>
<g>
</g>
<g>
</g>
</symbol><symbol id="019-files" viewBox="0 0 497 497"><g><path d="m25 367.598h447c13.807 0 25-11.193 25-25v-248.093c0-13.807-11.193-25-25-25h-307.75l-14.296-42.815c-3.407-10.202-12.957-17.082-23.713-17.082h-101.241c-13.807 0-25 11.193-25 25v307.99c0 13.807 11.193 25 25 25z" fill="#fd8087"/><path d="m317.046 86.587c-2.556 7.654-9.72 12.815-17.789 12.815h-299.257v243.196c0 13.807 11.193 25 25 25h447c13.807 0 25-11.193 25-25v-248.093c0-13.807-11.193-25-25-25h-131.241c-10.756 0-20.306 6.88-23.713 17.082z" fill="#fe646f"/><path d="m462 427.495h-437c-13.807 0-25-11.193-25-25v-248.093c0-13.807 11.193-25 25-25h307.75l14.296-42.815c3.407-10.202 12.957-17.082 23.713-17.082h91.241c13.807 0 25 11.193 25 25v307.99c0 13.807-11.193 25-25 25z" fill="#8ac9fe"/><path d="m497 402.495c0 13.807-11.193 25-25 25h-30-417c-13.807 0-25-11.193-25-25v-243.196h442c13.807 0 25-11.193 25-25v-39.794c0-13.807-11.193-25-25-25h30c13.807 0 25 11.193 25 25z" fill="#60b7ff"/><path d="m25 487.392h437c13.807 0 25-11.193 25-25v-248.093c0-13.807-11.193-25-25-25h-297.75l-14.296-42.815c-3.407-10.202-12.957-17.082-23.713-17.082h-101.241c-13.807 0-25 11.193-25 25v307.99c0 13.807 11.193 25 25 25z" fill="#fed402"/><g><path d="m472 189.299h-30c13.807 0 25 11.193 25 25v248.093c0 13.807-11.193 25-25 25h30c13.807 0 25-11.193 25-25v-248.093c0-13.807-11.193-25-25-25z" fill="#fac600"/></g><path d="m166.335 367.598h-108.65c-5.523 0-10 4.477-10 10v52.552c0 5.523 4.477 10 10 10h108.65c5.523 0 10-4.477 10-10v-52.552c0-5.523-4.477-10-10-10z" fill="#efedef"/><g><path d="m143.662 411.374h-63.032c-4.142 0-7.5-3.358-7.5-7.5s3.358-7.5 7.5-7.5h63.031c4.142 0 7.5 3.358 7.5 7.5.001 4.142-3.357 7.5-7.499 7.5z" fill="#b5adb6"/></g></g></symbol><symbol id="020-search" viewBox="0 0 512 512"><g><path d="m398.891 411.752h57.665v31.943h-57.665z" fill="#ffe177" transform="matrix(.707 -.707 .707 .707 -177.169 427.724)"/><g><g><path d="m249.756 411.526v-390.713c0-11.495-9.318-20.813-20.813-20.813h-83.252c-11.495 0-20.813 9.318-20.813 20.813v390.713c0 11.495 9.318 20.813 20.813 20.813h83.252c11.495 0 20.813-9.318 20.813-20.813z" fill="#fd8087"/><path d="m170.667 345.965v-259.591c0-4.598 3.727-8.325 8.325-8.325h16.65c4.598 0 8.325 3.727 8.325 8.325v259.591c0 4.598-3.727 8.325-8.325 8.325h-16.65c-4.598.001-8.325-3.727-8.325-8.325z" fill="#ffe177"/><path d="m228.943 0h-12.488v432.339h12.488c11.495 0 20.813-9.318 20.813-20.813v-390.713c0-11.495-9.318-20.813-20.813-20.813z" fill="#fe646f"/></g><g><g fill="#bbec6c"><path d="m374.634 62.439v-41.626c0-11.495-9.318-20.813-20.813-20.813h-83.252c-11.495 0-20.813 9.318-20.813 20.813v41.626z"/><path d="m249.756 95.74v315.787c0 11.495 9.318 20.813 20.813 20.813h83.252c11.495 0 20.813-9.318 20.813-20.813v-315.787z"/></g><g fill="#a2e62e"><path d="m374.634 62.439v-41.626c0-11.495-9.318-20.813-20.813-20.813h-12.488v62.439z"/><path d="m341.333 95.74v336.6h12.488c11.495 0 20.813-9.318 20.813-20.813v-315.787z"/></g><path d="m295.545 16.65h33.301v124.878h-33.301z" fill="#ffe177" transform="matrix(0 -1 1 0 233.106 391.285)"/><path d="m341.333 62.439h33.301v33.301h-33.301z" fill="#ffd15b"/></g><g><g fill="#99e6fc"><g><path d="m0 95.74h124.878v240.86h-124.878z"/><path d="m0 369.9v41.626c0 11.495 9.318 20.813 20.813 20.813h83.252c11.495 0 20.813-9.318 20.813-20.813v-41.626z"/></g><path d="m124.878 62.439v-41.626c0-11.495-9.318-20.813-20.813-20.813h-83.252c-11.495 0-20.813 9.318-20.813 20.813v41.626z"/></g><g fill="#62dbfb"><path d="m124.878 62.439v-41.626c0-11.495-9.318-20.813-20.813-20.813h-12.488v62.439z"/><g><path d="m91.577 95.74h33.301v240.86h-33.301z"/><path d="m91.577 369.9v62.439h12.488c11.495 0 20.813-9.318 20.813-20.813v-41.626z"/></g></g><path d="m45.789 290.811h33.301v124.878h-33.301z" fill="#fe7ab6" transform="matrix(0 1 -1 0 415.689 290.811)"/><path d="m91.577 336.6h33.301v33.301h-33.301z" fill="#fe5ca7"/><path d="m45.789 16.65h33.301v124.878h-33.301z" fill="#fe7ab6" transform="matrix(0 -1 1 0 -16.65 141.529)"/><path d="m91.577 62.439h33.301v33.301h-33.301z" fill="#fe5ca7"/></g></g><circle cx="278.323" cy="278.323" fill="#82aee3" r="154.016"/><path d="m444.392 388.468-55.925 55.925c-4.064 4.064-10.653 4.064-14.717 0l-27.962-27.962 70.642-70.642 27.962 27.962c4.064 4.064 4.064 10.653 0 14.717z" fill="#0573ce"/><path d="m512 449.643v52.357c0 5.523-4.477 10-10 10h-52.357c-5.304 0-10.391-2.107-14.142-5.858l-24.446-24.446c-4.064-4.064-4.064-10.653 0-14.717l55.925-55.925c4.064-4.064 10.653-4.064 14.717 0l24.446 24.446c3.75 3.751 5.857 8.838 5.857 14.143z" fill="#82aee3"/><path d="m457.712 435.039 54.288 54.288v-39.684c0-5.304-2.107-10.391-5.858-14.142l-24.446-24.445c-4.064-4.064-10.653-4.064-14.717 0l-23.984 23.983c4.065-4.064 10.653-4.064 14.717 0z" fill="#528fd8"/><path d="m369.298 154.047c18.693 25.492 29.74 56.941 29.74 90.975 0 85.061-68.955 154.016-154.016 154.016-34.034 0-65.483-11.047-90.975-29.74 28.026 38.22 73.249 63.041 124.276 63.041 85.061 0 154.016-68.956 154.016-154.016 0-51.027-24.821-96.25-63.041-124.276z" fill="#528fd8"/><circle cx="278.323" cy="278.323" fill="#99e6fc" r="120.715"/><path d="m347.551 179.488c13.779 19.613 21.88 43.491 21.88 69.228 0 66.563-54.153 120.715-120.715 120.715-25.737 0-49.614-8.101-69.228-21.88 21.857 31.112 58.01 51.488 98.835 51.488 66.562 0 120.715-54.152 120.715-120.715.001-40.827-20.375-76.979-51.487-98.836z" fill="#62dbfb"/></g></symbol></svg>
