<?xml version="1.0" encoding="UTF-8"?><!DOCTYPE svg PUBLIC "-//W3C//DTD SVG 1.1//EN" "http://www.w3.org/Graphics/SVG/1.1/DTD/svg11.dtd"><svg xmlns="http://www.w3.org/2000/svg" xmlns:xlink="http://www.w3.org/1999/xlink"><defs>
    <clipPath id="a">
      <path fill-opacity=".7" d="M177.2 0h708.6v708.7H177.2z"/>
    </clipPath>
  </defs><symbol id="en-US" viewBox="0 0 512 512">
  <g fill-rule="evenodd">
    <g stroke-width="1pt">
      <path fill="#bd3d44" d="M0 0h247v10H0zm0 20h247v10H0zm0 20h247v10H0zm0 20h247v10H0zm0 20h247v10H0zm0 20h247v10H0zm0 20h247v10H0z" transform="scale(3.9385)"/>
      <path fill="#fff" d="M0 10h247v10H0zm0 20h247v10H0zm0 20h247v10H0zm0 20h247v10H0zm0 20h247v10H0zm0 20h247v10H0z" transform="scale(3.9385)"/>
    </g>
    <path fill="#192f5d" d="M0 0h98.8v70H0z" transform="scale(3.9385)"/>
    <path fill="#fff" d="M8.2 3l1 2.8H12L9.7 7.5l.9 2.7-2.4-1.7L6 10.2l.9-2.7-2.4-1.7h3zm16.5 0l.9 2.8h2.9l-2.4 1.7 1 2.7-2.4-1.7-2.4 1.7 1-2.7-2.4-1.7h2.9zm16.5 0l.9 2.8H45l-2.4 1.7 1 2.7-2.4-1.7-2.4 1.7 1-2.7-2.4-1.7h2.9zm16.4 0l1 2.8h2.8l-2.3 1.7.9 2.7-2.4-1.7-2.3 1.7.9-2.7-2.4-1.7h3zm16.5 0l.9 2.8h2.9l-2.4 1.7 1 2.7L74 8.5l-2.3 1.7.9-2.7-2.4-1.7h2.9zm16.5 0l.9 2.8h2.9L92 7.5l1 2.7-2.4-1.7-2.4 1.7 1-2.7-2.4-1.7h2.9zm-74.1 7l.9 2.8h2.9l-2.4 1.7 1 2.7-2.4-1.7-2.4 1.7 1-2.7-2.4-1.7h2.9zm16.4 0l1 2.8h2.8l-2.3 1.7.9 2.7-2.4-1.7-2.3 1.7.9-2.7-2.4-1.7h3zm16.5 0l.9 2.8h2.9l-2.4 1.7 1 2.7-2.4-1.7-2.4 1.7 1-2.7-2.4-1.7h2.9zm16.5 0l.9 2.8h2.9l-2.4 1.7 1 2.7-2.4-1.7-2.4 1.7 1-2.7-2.4-1.7H65zm16.4 0l1 2.8H86l-2.3 1.7.9 2.7-2.4-1.7-2.3 1.7.9-2.7-2.4-1.7h3zm-74 7l.8 2.8h3l-2.4 1.7.9 2.7-2.4-1.7L6 24.2l.9-2.7-2.4-1.7h3zm16.4 0l.9 2.8h2.9l-2.3 1.7.9 2.7-2.4-1.7-2.3 1.7.9-2.7-2.4-1.7h2.9zm16.5 0l.9 2.8H45l-2.4 1.7 1 2.7-2.4-1.7-2.4 1.7 1-2.7-2.4-1.7h2.9zm16.4 0l1 2.8h2.8l-2.3 1.7.9 2.7-2.4-1.7-2.3 1.7.9-2.7-2.4-1.7h3zm16.5 0l.9 2.8h2.9l-2.3 1.7.9 2.7-2.4-1.7-2.3 1.7.9-2.7-2.4-1.7h2.9zm16.5 0l.9 2.8h2.9L92 21.5l1 2.7-2.4-1.7-2.4 1.7 1-2.7-2.4-1.7h2.9zm-74.1 7l.9 2.8h2.9l-2.4 1.7 1 2.7-2.4-1.7-2.4 1.7 1-2.7-2.4-1.7h2.9zm16.4 0l1 2.8h2.8l-2.3 1.7.9 2.7-2.4-1.7-2.3 1.7.9-2.7-2.4-1.7h3zm16.5 0l.9 2.8h2.9l-2.3 1.7.9 2.7-2.4-1.7-2.3 1.7.9-2.7-2.4-1.7h2.9zm16.5 0l.9 2.8h2.9l-2.4 1.7 1 2.7-2.4-1.7-2.4 1.7 1-2.7-2.4-1.7H65zm16.4 0l1 2.8H86l-2.3 1.7.9 2.7-2.4-1.7-2.3 1.7.9-2.7-2.4-1.7h3zm-74 7l.8 2.8h3l-2.4 1.7.9 2.7-2.4-1.7L6 38.2l.9-2.7-2.4-1.7h3zm16.4 0l.9 2.8h2.9l-2.3 1.7.9 2.7-2.4-1.7-2.3 1.7.9-2.7-2.4-1.7h2.9zm16.5 0l.9 2.8H45l-2.4 1.7 1 2.7-2.4-1.7-2.4 1.7 1-2.7-2.4-1.7h2.9zm16.4 0l1 2.8h2.8l-2.3 1.7.9 2.7-2.4-1.7-2.3 1.7.9-2.7-2.4-1.7h3zm16.5 0l.9 2.8h2.9l-2.3 1.7.9 2.7-2.4-1.7-2.3 1.7.9-2.7-2.4-1.7h2.9zm16.5 0l.9 2.8h2.9L92 35.5l1 2.7-2.4-1.7-2.4 1.7 1-2.7-2.4-1.7h2.9zm-74.1 7l.9 2.8h2.9l-2.4 1.7 1 2.7-2.4-1.7-2.4 1.7 1-2.7-2.4-1.7h2.9zm16.4 0l1 2.8h2.8l-2.3 1.7.9 2.7-2.4-1.7-2.3 1.7.9-2.7-2.4-1.7h3zm16.5 0l.9 2.8h2.9l-2.3 1.7.9 2.7-2.4-1.7-2.3 1.7.9-2.7-2.4-1.7h2.9zm16.5 0l.9 2.8h2.9l-2.4 1.7 1 2.7-2.4-1.7-2.4 1.7 1-2.7-2.4-1.7H65zm16.4 0l1 2.8H86l-2.3 1.7.9 2.7-2.4-1.7-2.3 1.7.9-2.7-2.4-1.7h3zm-74 7l.8 2.8h3l-2.4 1.7.9 2.7-2.4-1.7L6 52.2l.9-2.7-2.4-1.7h3zm16.4 0l.9 2.8h2.9l-2.3 1.7.9 2.7-2.4-1.7-2.3 1.7.9-2.7-2.4-1.7h2.9zm16.5 0l.9 2.8H45l-2.4 1.7 1 2.7-2.4-1.7-2.4 1.7 1-2.7-2.4-1.7h2.9zm16.4 0l1 2.8h2.8l-2.3 1.7.9 2.7-2.4-1.7-2.3 1.7.9-2.7-2.4-1.7h3zm16.5 0l.9 2.8h2.9l-2.3 1.7.9 2.7-2.4-1.7-2.3 1.7.9-2.7-2.4-1.7h2.9zm16.5 0l.9 2.8h2.9L92 49.5l1 2.7-2.4-1.7-2.4 1.7 1-2.7-2.4-1.7h2.9zm-74.1 7l.9 2.8h2.9l-2.4 1.7 1 2.7-2.4-1.7-2.4 1.7 1-2.7-2.4-1.7h2.9zm16.4 0l1 2.8h2.8l-2.3 1.7.9 2.7-2.4-1.7-2.3 1.7.9-2.7-2.4-1.7h3zm16.5 0l.9 2.8h2.9l-2.3 1.7.9 2.7-2.4-1.7-2.3 1.7.9-2.7-2.4-1.7h2.9zm16.5 0l.9 2.8h2.9l-2.4 1.7 1 2.7-2.4-1.7-2.4 1.7 1-2.7-2.4-1.7H65zm16.4 0l1 2.8H86l-2.3 1.7.9 2.7-2.4-1.7-2.3 1.7.9-2.7-2.4-1.7h3zm-74 7l.8 2.8h3l-2.4 1.7.9 2.7-2.4-1.7L6 66.2l.9-2.7-2.4-1.7h3zm16.4 0l.9 2.8h2.9l-2.3 1.7.9 2.7-2.4-1.7-2.3 1.7.9-2.7-2.4-1.7h2.9zm16.5 0l.9 2.8H45l-2.4 1.7 1 2.7-2.4-1.7-2.4 1.7 1-2.7-2.4-1.7h2.9zm16.4 0l1 2.8h2.8l-2.3 1.7.9 2.7-2.4-1.7-2.3 1.7.9-2.7-2.4-1.7h3zm16.5 0l.9 2.8h2.9l-2.3 1.7.9 2.7-2.4-1.7-2.3 1.7.9-2.7-2.4-1.7h2.9zm16.5 0l.9 2.8h2.9L92 63.5l1 2.7-2.4-1.7-2.4 1.7 1-2.7-2.4-1.7h2.9z" transform="scale(3.9385)"/>
  </g>
</symbol><symbol id="vi-VN" viewBox="0 0 512 512">
  
  <g fill-rule="evenodd" clip-path="url(#a)" transform="translate(-128) scale(.72249)">
    <path fill="#ec0015" d="M0 0h1063v708.7H0z"/>
    <path fill="#ff0" d="M661 527.5l-124-92.6-123.3 93.5 45.9-152-123.2-93.8 152.4-1.3L536 129.8 584.3 281l152.4.2-122.5 94.7L661 527.5z"/>
  </g>
</symbol></svg>
